<svg width="16" height="26" viewBox="0 0 16 26" fill="none" xmlns="http://www.w3.org/2000/svg">
<path d="M5.39292 24.8636C12.0079 23.8403 14.8114 12.7732 14.8588 7.67218L15.1638 19.0321L13.6644 22.9712L12.0633 24.7502L5.39292 24.8636C4.82283 24.9518 4.22443 24.9654 3.59705 24.8942L5.39292 24.8636Z" fill="#DD3333"/>
<path d="M6.85364 22.2993C8.55175 22.0624 9.52853 19.8438 9.54019 18.5904V20.6564L9.08365 21.8275L8.73571 22.2455C7.41823 22.2106 8.74428 22.2993 6.85364 22.2993Z" fill="#DD3333"/>
<path d="M14.7994 7.12433L13.2756 6.24883V4.2757C13.2757 4.20709 13.2564 4.13982 13.2201 4.08163C13.1837 4.02343 13.1317 3.97664 13.07 3.94659L10.1885 2.53839C10.1327 2.51122 10.0708 2.49867 10.0088 2.50191C9.9468 2.50516 9.88663 2.52409 9.83393 2.55694C9.78135 2.58963 9.73794 2.63515 9.70778 2.68922C9.67763 2.74328 9.66171 2.80412 9.66153 2.86603V6.09307H9.1243V4.50616C9.1243 4.40903 9.08571 4.31589 9.01702 4.24721C8.94832 4.17853 8.85516 4.13995 8.75801 4.13995H8.14752V0.571106C8.14752 0.473981 8.10893 0.380837 8.04024 0.31216C7.97155 0.243482 7.87838 0.204895 7.78123 0.204895C7.68409 0.204895 7.59092 0.243482 7.52222 0.31216C7.45353 0.380837 7.41494 0.473981 7.41494 0.571106V4.13995H6.80445C6.70731 4.13995 6.61414 4.17853 6.54545 4.24721C6.47675 4.31589 6.43816 4.40903 6.43816 4.50616V6.09307H5.90094V2.86603C5.901 2.80388 5.8852 2.74273 5.85504 2.68838C5.82487 2.63404 5.78132 2.58831 5.72853 2.55549C5.67589 2.52251 5.6157 2.50349 5.55366 2.50025C5.49161 2.497 5.42977 2.50961 5.37397 2.53691L2.49247 3.94513C2.43077 3.97518 2.37877 4.02198 2.34241 4.08017C2.30605 4.13837 2.2868 4.20561 2.28686 4.27422V6.24738L0.763087 7.12287C0.558486 7.24074 0.388501 7.41036 0.270201 7.61468C0.1519 7.81901 0.0894477 8.05084 0.0891117 8.28693V18.9041C0.0889908 19.0678 0.118954 19.2302 0.17751 19.3831L1.59384 23.0848C1.83393 23.7066 2.25599 24.2415 2.8049 24.6197C3.35381 24.9979 4.00404 25.2019 4.67069 25.2049H10.8918C11.5588 25.2024 12.2096 24.9987 12.759 24.6204C13.3084 24.2422 13.7308 23.7069 13.9711 23.0848L15.385 19.3836C15.4435 19.2305 15.4734 19.068 15.4734 18.9041V8.28693C15.4728 8.05109 15.4102 7.81954 15.2919 7.61549C15.1736 7.41145 15.0038 7.24207 14.7994 7.12433ZM7.17075 4.87385H8.39172V6.09455H7.17075V4.87385ZM0.821695 8.28838C0.821866 8.18106 0.850244 8.0757 0.903988 7.9828C0.957732 7.8899 1.03496 7.81275 1.12792 7.75909L2.83728 6.77814C2.89312 6.74608 2.93951 6.69983 2.97175 6.6441C3.00399 6.58838 3.02095 6.52514 3.02091 6.46076V4.5042L5.16982 3.45392V9.36017C5.17053 9.56881 5.12979 9.77552 5.04998 9.9683C4.97016 10.1611 4.85286 10.3361 4.70487 10.4832L0.821695 14.3611V8.28838ZM14.7408 18.9056C14.7407 18.98 14.7272 19.0538 14.7007 19.1234L13.2868 22.825C13.1001 23.3086 12.7718 23.7247 12.3449 24.0188C11.918 24.313 11.4122 24.4716 10.8937 24.4739H4.67069C4.15219 24.4716 3.64645 24.313 3.21953 24.0188C2.7926 23.7247 2.46433 23.3086 2.27758 22.825L0.861743 19.1258C0.835309 19.0562 0.821739 18.9824 0.821695 18.908V15.3997L5.22159 11.0008C5.43773 10.7858 5.60907 10.5302 5.72568 10.2485C5.84229 9.96692 5.90186 9.66496 5.90094 9.36017V6.82893H9.66153V9.36017C9.66067 9.66488 9.72027 9.96675 9.83688 10.2483C9.95349 10.5298 10.1248 10.7854 10.3409 11.0003L14.7408 15.3992V18.9056ZM14.7408 14.3611L10.8591 10.4803C10.7111 10.3332 10.5938 10.1582 10.514 9.96537C10.4341 9.77259 10.3934 9.56588 10.3941 9.35724V3.45197L12.543 4.50225V6.45881C12.543 6.52319 12.5599 6.58644 12.5922 6.64217C12.6244 6.6979 12.6708 6.74413 12.7267 6.77619L14.436 7.75714C14.529 7.8108 14.6062 7.88795 14.6599 7.98085C14.7137 8.07374 14.7421 8.17911 14.7422 8.28643L14.7408 14.3611Z" fill="black"/>
<path d="M7.7813 15.5125C8.13735 15.512 8.47866 15.3704 8.73042 15.1186C8.98219 14.8669 9.12385 14.5257 9.12437 14.1697V11.2401C9.12385 10.8841 8.98219 10.5429 8.73042 10.2911C8.47866 10.0394 8.13735 9.89779 7.7813 9.89728C7.42526 9.89779 7.08394 10.0394 6.83218 10.2911C6.58042 10.5429 6.43875 10.8841 6.43823 11.2401V14.1697C6.43875 14.5257 6.58042 14.8669 6.83218 15.1186C7.08394 15.3704 7.42526 15.512 7.7813 15.5125ZM7.17082 11.2401C7.17107 11.0783 7.23547 10.9232 7.34991 10.8088C7.46434 10.6943 7.61947 10.63 7.7813 10.6297C7.94313 10.63 8.09826 10.6943 8.2127 10.8088C8.32713 10.9232 8.39153 11.0783 8.39179 11.2401V14.1697C8.39153 14.3315 8.32713 14.4866 8.2127 14.601C8.09826 14.7154 7.94313 14.7798 7.7813 14.7801C7.61947 14.7798 7.46434 14.7154 7.34991 14.601C7.23547 14.4866 7.17107 14.3315 7.17082 14.1697V11.2401Z" fill="black"/>
<path d="M7.78127 18.1263C7.1665 18.1271 6.57711 18.3715 6.14227 18.8059C5.70742 19.2404 5.46259 19.8295 5.46143 20.4442C5.4622 21.0591 5.70686 21.6485 6.14175 22.0833C6.57664 22.5181 7.16625 22.7627 7.78127 22.7635C8.3963 22.7627 8.98591 22.5181 9.42079 22.0833C9.85568 21.6485 10.1003 21.0591 10.1011 20.4442C10.1 19.8295 9.85512 19.2404 9.42028 18.8059C8.98543 18.3715 8.39604 18.1271 7.78127 18.1263ZM7.78127 22.0325C7.36021 22.032 6.95656 21.8645 6.65896 21.5667C6.36136 21.2689 6.19414 20.8651 6.19401 20.4442C6.19453 20.0234 6.36192 19.6201 6.65948 19.3226C6.95704 19.0251 7.36046 18.8578 7.78127 18.8573C8.20208 18.8578 8.60551 19.0251 8.90306 19.3226C9.20062 19.6201 9.36802 20.0234 9.36854 20.4442C9.36841 20.8651 9.20118 21.2689 8.90358 21.5667C8.60598 21.8645 8.20234 22.032 7.78127 22.0325Z" fill="black"/>
</svg>
