<svg width="109" height="21" viewBox="0 0 109 21" fill="none" xmlns="http://www.w3.org/2000/svg">
<path fill-rule="evenodd" clip-rule="evenodd" d="M106.443 0.19517C106.872 0.19517 107.292 0.303082 107.701 0.520062C108.105 0.732791 108.438 1.05695 108.657 1.45285C108.885 1.85638 109 2.27829 109 2.71742C109 3.15138 108.888 3.56927 108.662 3.96936C108.444 4.36329 108.116 4.68739 107.716 4.90329C107.328 5.12082 106.89 5.23553 106.443 5.23622C105.996 5.23542 105.558 5.12072 105.169 4.90329C104.769 4.68748 104.44 4.36341 104.221 3.96936C104 3.58804 103.883 3.15663 103.882 2.71742C103.882 2.27829 103.997 1.85638 104.226 1.45285C104.447 1.05668 104.78 0.732533 105.185 0.520062C105.57 0.309639 106.003 0.197922 106.443 0.19517ZM106.443 0.612482C106.083 0.612482 105.734 0.70375 105.394 0.885141C105.053 1.06653 104.787 1.32657 104.595 1.66294C104.403 2.00047 104.307 2.35177 104.307 2.71742C104.307 3.07963 104.401 3.42748 104.59 3.76042C104.778 4.09335 105.042 4.35338 105.381 4.53936C105.704 4.721 106.07 4.81711 106.442 4.81834C106.815 4.81698 107.18 4.72088 107.504 4.53936C107.837 4.35912 108.11 4.08885 108.293 3.76042C108.48 3.42748 108.574 3.07963 108.574 2.71742C108.574 2.35119 108.479 1.99989 108.288 1.66294C108.097 1.32657 107.831 1.06653 107.489 0.885141C107.148 0.70375 106.799 0.612482 106.443 0.612482ZM105.321 4.11V1.39832H106.265C106.59 1.39832 106.824 1.42243 106.968 1.47237C107.113 1.52231 107.228 1.61013 107.315 1.73469C107.4 1.86041 107.443 1.99243 107.443 2.13249C107.443 2.3311 107.372 2.50331 107.228 2.64969C107.084 2.79721 106.894 2.87872 106.656 2.89766C106.754 2.93727 106.833 2.98491 106.89 3.04117C107 3.14851 107.136 3.3276 107.298 3.5796L107.633 4.11H107.09L106.845 3.68235C106.653 3.34712 106.499 3.13645 106.381 3.05207C106.3 2.9895 106.181 2.95851 106.025 2.95851H105.765V4.11H105.321ZM105.765 2.58424H106.304C106.561 2.58424 106.737 2.54521 106.831 2.47002C106.877 2.43411 106.913 2.38824 106.937 2.33603C106.962 2.28382 106.974 2.22671 106.972 2.16923C106.972 2.09227 106.948 2.01709 106.904 1.95397C106.857 1.88973 106.791 1.84061 106.716 1.81276C106.635 1.78062 106.487 1.76569 106.269 1.76569H105.765V2.58424ZM57.1142 0.0292765H57.1992V5.8246H51.2566V0.0292765H57.1142ZM31.2508 12.2846L44.9952 13.1244C45.5668 13.1244 46.034 13.5854 46.034 14.1479C46.034 14.7105 45.5668 15.1714 44.9952 15.1714H25.4072V7.6276C26.009 9.95698 28.0808 11.8622 31.2508 12.2846ZM25.4072 20.9994H45.4328C48.3517 20.9994 50.8027 18.9243 51.3428 16.1977C51.8194 18.9152 54.232 20.9994 57.1148 20.9994H69.9095C72.7679 20.9994 75.1653 18.949 75.6687 16.2638V20.9994H96.1831C99.4947 20.9994 102.204 18.3302 102.204 15.0663V14.2266C102.204 10.9638 99.4947 8.29461 96.1831 8.29461L95.0575 8.24582C88.6749 7.96914 82.3116 7.65228 75.9373 7.32796C76.4337 9.79223 78.5445 11.8438 81.8496 12.2846L95.745 13.1244C96.0203 13.1252 96.2842 13.2332 96.4791 13.425C96.6739 13.6167 96.7838 13.8766 96.7849 14.1479C96.7838 14.4192 96.6739 14.6791 96.4791 14.8709C96.2842 15.0626 96.0203 15.1706 95.745 15.1714H75.7666V7.31935L69.8245 7.01741V13.7335C69.8232 14.1863 69.6401 14.6203 69.3151 14.9405C68.9901 15.2607 68.5497 15.4411 68.09 15.4423H58.9343C58.4746 15.4413 58.0341 15.2609 57.709 14.9406C57.384 14.6204 57.2009 14.1864 57.1998 13.7335V6.37566L51.2566 6.07372V12.7312C50.5773 10.213 48.2177 8.39736 45.4328 8.39736L19.26 6.71146V21H25.4072V20.9994ZM50.3122 5.82747V0H31.2508C28.4368 0 26.0586 1.92699 25.4072 4.50837V0.0287028H14.0293L10.152 5.8246H25.2318L50.3122 5.82747ZM16.7501 6.56795L7.352 20.9994H0L9.91492 6.17934L16.7501 6.56795ZM102.203 5.82747V0H81.849C78.5742 0 75.8889 2.61123 75.8295 5.8246L102.203 5.82747ZM69.8239 5.8246V0.0292765H75.766V5.8246H69.8239Z" fill="#080F0F"/>
</svg>
