<svg width="30" height="30" viewBox="0 0 30 30" fill="none" xmlns="http://www.w3.org/2000/svg">
<path d="M25.5769 20.7687L9.74506 20.9284C18.5524 19.0924 24.9117 14.0368 28.424 8.34271L25.5769 20.7687Z" fill="#DD3333"/>
<path d="M25.7581 28.5127H21.7682C24.3125 28.5127 26.0858 25.8868 26.6544 24.5738L25.7581 28.5127Z" fill="#DD3333"/>
<path d="M11.6068 28.5127H7.74695C10.2083 28.5127 11.9237 25.8868 12.4738 24.5738L11.6068 28.5127Z" fill="#DD3333"/>
<path d="M29.121 25.2122H27.2771C27.0017 24.6997 26.5922 24.2712 26.0924 23.9725C25.5925 23.6738 25.0208 23.516 24.4382 23.5158C23.8556 23.516 23.284 23.6738 22.7841 23.9725C22.2842 24.2712 21.8748 24.6997 21.5994 25.2122H13.1513C12.8759 24.6997 12.4665 24.2712 11.9666 23.9725C11.4667 23.6738 10.8951 23.516 10.3125 23.5158C9.72988 23.516 9.15822 23.6738 8.65834 23.9725C8.15845 24.2712 7.74903 24.6997 7.47362 25.2122H6.81618C6.42768 25.2122 6.05511 25.0581 5.7804 24.7839C5.50569 24.5096 5.35134 24.1376 5.35134 23.7498C5.35087 23.5576 5.3886 23.3672 5.46232 23.1897C5.53605 23.0122 5.6443 22.851 5.78084 22.7156C5.91647 22.5794 6.07782 22.4714 6.25554 22.3979C6.43326 22.3244 6.62382 22.2868 6.81618 22.2874H26.1913C26.3907 22.2874 26.5841 22.2198 26.7398 22.0956C26.8956 21.9715 27.0044 21.7982 27.0486 21.6041L29.9782 8.73477C30.0074 8.60629 30.0072 8.4729 29.9777 8.34449C29.9482 8.21608 29.8901 8.09595 29.8077 7.99302C29.7254 7.8901 29.6209 7.80701 29.5021 7.74989C29.3832 7.69278 29.2529 7.66312 29.121 7.6631H6.35975L5.32205 0.747593C5.29089 0.539743 5.18606 0.349963 5.02659 0.212766C4.86712 0.0755686 4.66363 6.74001e-05 4.45311 0H0.878904C0.645804 0 0.422246 0.0924407 0.25742 0.256995C0.0925934 0.42155 0 0.644739 0 0.877455C0 1.11017 0.0925934 1.33336 0.25742 1.49791C0.422246 1.66247 0.645804 1.75491 0.878904 1.75491H3.69607L4.73319 8.67042L6.51561 20.5453C5.76742 20.613 5.06703 20.9417 4.53749 21.4737C4.23729 21.7717 3.99929 22.1262 3.83727 22.5167C3.67524 22.9072 3.59239 23.3259 3.59354 23.7486C3.59447 24.6016 3.9343 25.4194 4.53846 26.0226C5.14262 26.6257 5.96177 26.965 6.81618 26.9659H7.0992C7.15933 27.7761 7.52383 28.5336 8.11969 29.0869C8.71555 29.6401 9.49877 29.9481 10.3125 29.9493C11.1262 29.9481 11.9094 29.6401 12.5052 29.0869C13.1011 28.5336 13.4656 27.7761 13.5257 26.9659H21.2249C21.2851 27.7761 21.6496 28.5336 22.2454 29.0869C22.8413 29.6401 23.6245 29.9481 24.4382 29.9493C25.2519 29.9481 26.0351 29.6401 26.631 29.0869C27.2269 28.5336 27.5914 27.7761 27.6515 26.9659H29.121C29.3541 26.9659 29.5777 26.8735 29.7425 26.7089C29.9073 26.5444 29.9999 26.3212 29.9999 26.0885C29.9996 25.856 29.9069 25.6331 29.7421 25.4688C29.5773 25.3045 29.3539 25.2122 29.121 25.2122ZM28.02 9.41801L25.49 20.5324H8.291L6.62284 9.41801H28.02ZM10.3125 28.1955C9.92397 28.1955 9.55138 28.0415 9.27667 27.7672C9.00196 27.493 8.84763 27.121 8.84763 26.7331C8.84763 26.3453 9.00196 25.9733 9.27667 25.699C9.55138 25.4248 9.92397 25.2707 10.3125 25.2707C10.701 25.2707 11.0736 25.4248 11.3483 25.699C11.623 25.9733 11.7773 26.3453 11.7773 26.7331C11.7773 27.121 11.623 27.493 11.3483 27.7672C11.0736 28.0415 10.701 28.1955 10.3125 28.1955V28.1955ZM24.4382 28.1955C24.0497 28.1955 23.6771 28.0415 23.4024 27.7672C23.1277 27.493 22.9734 27.121 22.9734 26.7331C22.9734 26.3453 23.1277 25.9733 23.4024 25.699C23.6771 25.4248 24.0497 25.2707 24.4382 25.2707C24.8267 25.2707 25.1993 25.4248 25.474 25.699C25.7487 25.9733 25.9031 26.3453 25.9031 26.7331C25.9031 27.121 25.7487 27.493 25.474 27.7672C25.1993 28.0415 24.8267 28.1955 24.4382 28.1955V28.1955Z" fill="#080F0F"/>
</svg>
