<svg xmlns="http://www.w3.org/2000/svg" width="30" height="30" viewBox="0 0 30 30" fill="none"><path d="M20.3467 4.21191V8.0907H15.7812C17.0664 7.14018 17.9749 5.76658 18.3467 4.21191H20.3467Z" fill="#DD3333"></path><path d="M20.3467 11.3638V15.2426H15.7812C17.0664 14.292 17.9749 12.9184 18.3467 11.3638H20.3467Z" fill="#DD3333"></path><path d="M24.1047 17.7881V29.5457H13.5696C15.7876 28.9088 17.7501 27.5926 19.1811 25.7823C20.6121 23.972 21.4396 21.7586 21.5472 19.4535L24.1047 17.7881Z" fill="#DD3333"></path><path d="M24.1059 0.45459V17.7879L21.4998 19.4849H17.2507C20.2909 16.3752 21.9905 12.1974 21.9847 7.84853C21.9847 5.19277 22.1059 0.45459 22.1059 0.45459H24.1059Z" fill="#DD3333"></path><path d="M24.1051 30H5.9233C5.80274 30 5.68713 29.9521 5.60188 29.8669C5.51664 29.7816 5.46875 29.666 5.46875 29.5455V0.454545C5.46875 0.333993 5.51664 0.218382 5.60188 0.133138C5.68713 0.0478942 5.80274 0 5.9233 0H24.1051C24.2257 0 24.3413 0.0478942 24.4265 0.133138C24.5118 0.218382 24.5597 0.333993 24.5597 0.454545V29.5455C24.5597 29.666 24.5118 29.7816 24.4265 29.8669C24.3413 29.9521 24.2257 30 24.1051 30ZM6.37784 29.0909H23.6506V0.909091H6.37784V29.0909Z" fill="#080F0F"></path><path d="M20.347 8.54569H9.68038C9.55982 8.54569 9.44421 8.4978 9.35896 8.41255C9.27372 8.32731 9.22583 8.2117 9.22583 8.09115V4.21236C9.22583 4.0918 9.27372 3.97619 9.35896 3.89095C9.44421 3.80571 9.55982 3.75781 9.68038 3.75781H20.347C20.4676 3.75781 20.5832 3.80571 20.6685 3.89095C20.7537 3.97619 20.8016 4.0918 20.8016 4.21236V8.09115C20.8016 8.2117 20.7537 8.32731 20.6685 8.41255C20.5832 8.4978 20.4676 8.54569 20.347 8.54569ZM10.1349 7.6366H19.8925V4.6669H10.1349V7.6366Z" fill="#080F0F"></path><path d="M20.347 15.6971H9.68038C9.55982 15.6971 9.44421 15.6492 9.35896 15.5639C9.27372 15.4787 9.22583 15.3631 9.22583 15.2425V11.3637C9.22583 11.2432 9.27372 11.1276 9.35896 11.0423C9.44421 10.9571 9.55982 10.9092 9.68038 10.9092H20.347C20.4676 10.9092 20.5832 10.9571 20.6685 11.0423C20.7537 11.1276 20.8016 11.2432 20.8016 11.3637V15.2425C20.8016 15.3631 20.7537 15.4787 20.6685 15.5639C20.5832 15.6492 20.4676 15.6971 20.347 15.6971ZM10.1349 14.788H19.8925V11.8183H10.1349V14.788Z" fill="#080F0F"></path><path d="M21.4988 19.9393H8.52913C8.44115 19.9394 8.35504 19.9139 8.28125 19.866L5.67519 18.169C5.57431 18.1031 5.50364 17.9999 5.47866 17.882C5.45367 17.7641 5.47639 17.6411 5.54186 17.54C5.60778 17.4391 5.71098 17.3684 5.82888 17.3434C5.94677 17.3184 6.06977 17.3411 6.17095 17.4066L8.66428 19.0302H21.3637L23.857 17.4066C23.9582 17.3411 24.0812 17.3184 24.1991 17.3434C24.317 17.3684 24.4202 17.4391 24.4861 17.54C24.5516 17.6411 24.5743 17.7641 24.5493 17.882C24.5243 17.9999 24.4536 18.1031 24.3528 18.169L21.7467 19.866C21.6729 19.9139 21.5868 19.9394 21.4988 19.9393V19.9393Z" fill="#080F0F"></path><path d="M15.014 26.6061C14.4597 26.6055 13.9282 26.385 13.5362 25.993C13.1442 25.601 12.9237 25.0696 12.9231 24.5152C12.9237 23.9609 13.1442 23.4294 13.5362 23.0374C13.9282 22.6455 14.4597 22.425 15.014 22.4243C15.5684 22.425 16.0998 22.6455 16.4918 23.0374C16.8838 23.4294 17.1043 23.9609 17.1049 24.5152C17.1043 25.0696 16.8838 25.601 16.4918 25.993C16.0998 26.385 15.5684 26.6055 15.014 26.6061ZM15.014 23.3334C14.7007 23.3339 14.4004 23.4586 14.1789 23.6801C13.9573 23.9016 13.8327 24.2019 13.8322 24.5152C13.8327 24.8285 13.9573 25.1288 14.1789 25.3504C14.4004 25.5719 14.7007 25.6966 15.014 25.697C15.3273 25.6966 15.6276 25.5719 15.8491 25.3504C16.0707 25.1288 16.1953 24.8285 16.1958 24.5152C16.1953 24.2019 16.0707 23.9016 15.8491 23.6801C15.6276 23.4586 15.3273 23.3339 15.014 23.3334Z" fill="#080F0F"></path></svg>