<svg width="30" height="30" viewBox="0 0 30 30" fill="none" xmlns="http://www.w3.org/2000/svg">
<path d="M20.7177 4.16675V8.00374H16.2014C17.4728 7.06346 18.3715 5.70467 18.7392 4.16675H20.7177Z" fill="#DD3333"/>
<path d="M20.7177 11.2412V15.0782H16.2014C17.4728 14.1379 18.3715 12.7791 18.7392 11.2412H20.7177Z" fill="#DD3333"/>
<path d="M24.4351 17.5962V29.2271H14.0135C16.2076 28.5971 18.1489 27.2951 19.5645 25.5043C20.9801 23.7135 21.7987 21.524 21.9051 19.2437L24.4351 17.5962Z" fill="#DD3333"/>
<path d="M24.4363 0.449646V17.5962L21.8583 19.2749H17.655C20.6624 16.1987 22.3437 12.0659 22.338 7.76391C22.338 5.13677 22.4579 0.449646 22.4579 0.449646H24.4363Z" fill="#DD3333"/>
<path d="M24.4355 29.6767H6.44965C6.33039 29.6767 6.21602 29.6293 6.1317 29.545C6.04737 29.4607 6 29.3463 6 29.2271V0.449647C6 0.330393 6.04737 0.216029 6.1317 0.131703C6.21602 0.0473781 6.33039 0 6.44965 0H24.4355C24.5548 0 24.6692 0.0473781 24.7535 0.131703C24.8378 0.216029 24.8852 0.330393 24.8852 0.449647V29.2271C24.8852 29.3463 24.8378 29.4607 24.7535 29.545C24.6692 29.6293 24.5548 29.6767 24.4355 29.6767ZM6.89929 28.7774H23.9859V0.899295H6.89929V28.7774Z" fill="#080F0F"/>
<path d="M20.7179 8.45339H10.1661C10.0469 8.45339 9.93251 8.40601 9.84819 8.32168C9.76386 8.23736 9.71649 8.12299 9.71649 8.00374V4.16675C9.71649 4.0475 9.76386 3.93313 9.84819 3.84881C9.93251 3.76448 10.0469 3.7171 10.1661 3.7171H20.7179C20.8371 3.7171 20.9515 3.76448 21.0358 3.84881C21.1201 3.93313 21.1675 4.0475 21.1675 4.16675V8.00374C21.1675 8.12299 21.1201 8.23736 21.0358 8.32168C20.9515 8.40601 20.8371 8.45339 20.7179 8.45339ZM10.6158 7.55409H20.2682V4.6164H10.6158V7.55409Z" fill="#080F0F"/>
<path d="M20.7179 15.5279H10.1661C10.0469 15.5279 9.93251 15.4805 9.84819 15.3961C9.76386 15.3118 9.71649 15.1975 9.71649 15.0782V11.2412C9.71649 11.122 9.76386 11.0076 9.84819 10.9233C9.93251 10.8389 10.0469 10.7916 10.1661 10.7916H20.7179C20.8371 10.7916 20.9515 10.8389 21.0358 10.9233C21.1201 11.0076 21.1675 11.122 21.1675 11.2412V15.0782C21.1675 15.1975 21.1201 15.3118 21.0358 15.3961C20.9515 15.4805 20.8371 15.5279 20.7179 15.5279ZM10.6158 14.6286H20.2682V11.6909H10.6158V14.6286Z" fill="#080F0F"/>
<path d="M21.8573 19.7246H9.0274C8.94037 19.7246 8.85519 19.6994 8.7822 19.652L6.20422 17.9733C6.10442 17.9081 6.03452 17.806 6.0098 17.6894C5.98508 17.5728 6.00756 17.4511 6.07232 17.351C6.13753 17.2512 6.23962 17.1813 6.35625 17.1566C6.47287 17.1319 6.59454 17.1544 6.69463 17.2191L9.1611 18.8253H21.7236L24.1901 17.2191C24.2902 17.1544 24.4119 17.1319 24.5285 17.1566C24.6451 17.1813 24.7472 17.2512 24.8124 17.351C24.8772 17.4511 24.8997 17.5728 24.8749 17.6894C24.8502 17.806 24.7803 17.9081 24.6805 17.9733L22.1025 19.652C22.0296 19.6994 21.9444 19.7246 21.8573 19.7246V19.7246Z" fill="#080F0F"/>
<path d="M15.4424 26.3194C14.894 26.3187 14.3683 26.1006 13.9805 25.7128C13.5928 25.3251 13.3747 24.7994 13.374 24.251C13.3747 23.7026 13.5928 23.1769 13.9805 22.7891C14.3683 22.4014 14.894 22.1833 15.4424 22.1826C15.9908 22.1833 16.5165 22.4014 16.9043 22.7891C17.292 23.1769 17.5101 23.7026 17.5108 24.251C17.5101 24.7994 17.292 25.3251 16.9043 25.7128C16.5165 26.1006 15.9908 26.3187 15.4424 26.3194ZM15.4424 23.0819C15.1325 23.0824 14.8354 23.2057 14.6163 23.4249C14.3971 23.644 14.2738 23.9411 14.2733 24.251C14.2738 24.5609 14.3971 24.858 14.6163 25.0771C14.8354 25.2963 15.1325 25.4196 15.4424 25.4201C15.7523 25.4196 16.0494 25.2963 16.2685 25.0771C16.4877 24.858 16.611 24.5609 16.6115 24.251C16.611 23.9411 16.4877 23.644 16.2685 23.4249C16.0494 23.2057 15.7523 23.0824 15.4424 23.0819Z" fill="#080F0F"/>
<path d="M15.4426 30C16.7456 30 18.0194 29.6136 19.1028 28.8897C20.1863 28.1657 21.0307 27.1368 21.5294 25.9329C22.028 24.7291 22.1585 23.4044 21.9043 22.1264C21.6501 20.8484 21.0226 19.6744 20.1012 18.753C19.1798 17.8316 18.0059 17.2042 16.7279 16.95C15.4499 16.6957 14.1252 16.8262 12.9213 17.3249C11.7175 17.8235 10.6885 18.668 9.96458 19.7514C9.24065 20.8349 8.85425 22.1086 8.85425 23.4117C8.85624 25.1584 9.551 26.833 10.7861 28.0681C12.0212 29.3032 13.6958 29.998 15.4426 30Z" fill="#DD3333"/>
<path fill-rule="evenodd" clip-rule="evenodd" d="M15.4438 28.9569C16.5401 28.9567 17.6117 28.6314 18.5233 28.0223C19.4352 27.413 20.146 26.547 20.5657 25.5337C20.9854 24.5205 21.0952 23.4055 20.8812 22.3299C20.6673 21.2542 20.1391 20.2661 19.3636 19.4906C18.5881 18.7151 17.6 18.187 16.5244 17.973C15.4487 17.7591 14.3338 17.8689 13.3205 18.2886C12.3073 18.7083 11.4412 19.419 10.8319 20.3309C10.2227 21.2427 9.89748 22.3146 9.89736 23.4111C9.8992 24.8814 10.4841 26.2909 11.5237 27.3305C12.5635 28.3703 13.9733 28.9552 15.4438 28.9569ZM15.4426 30C16.7456 30 18.0194 29.6136 19.1028 28.8897C20.1863 28.1657 21.0307 27.1368 21.5294 25.9329C22.028 24.7291 22.1585 23.4044 21.9043 22.1264C21.6501 20.8484 21.0226 19.6744 20.1012 18.753C19.1798 17.8316 18.0059 17.2042 16.7279 16.95C15.4499 16.6957 14.1252 16.8262 12.9213 17.3249C11.7175 17.8235 10.6885 18.668 9.96458 19.7514C9.24065 20.8349 8.85425 22.1086 8.85425 23.4117C8.85624 25.1584 9.551 26.833 10.7861 28.0681C12.0212 29.3032 13.6958 29.998 15.4426 30Z" fill="#080F0F"/>
<path d="M14.4135 25.0623C14.5423 25.1864 14.7143 25.2557 14.8932 25.2557C15.0721 25.2557 15.2441 25.1864 15.373 25.0623L17.7669 22.7569C17.8322 22.6939 17.8846 22.6186 17.9209 22.5353C17.9572 22.4521 17.9767 22.3625 17.9784 22.2717C17.98 22.1808 17.9638 22.0906 17.9306 22.0061C17.8974 21.9215 17.8479 21.8444 17.7848 21.779C17.7218 21.7136 17.6465 21.6612 17.5632 21.6249C17.48 21.5886 17.3904 21.5691 17.2996 21.5674C17.2088 21.5658 17.1185 21.582 17.034 21.6152C16.9495 21.6484 16.8723 21.698 16.8069 21.761L14.893 23.6053L14.0783 22.8215C14.0129 22.7584 13.9357 22.7089 13.8512 22.6757C13.7666 22.6425 13.6764 22.6262 13.5856 22.6279C13.4948 22.6296 13.4052 22.6491 13.3219 22.6854C13.2387 22.7217 13.1634 22.774 13.1003 22.8394C13.0373 22.9048 12.9878 22.982 12.9546 23.0665C12.9214 23.1511 12.9051 23.2413 12.9068 23.3321C12.9102 23.5155 12.9863 23.6901 13.1183 23.8174L14.4135 25.0623Z" fill="#FBFAF8"/>
</svg>
