<svg xmlns="http://www.w3.org/2000/svg" width="38" height="31" viewBox="0 0 38 31" fill="none"><path d="M27.8902 26.2021V30.3034H23.0082C23.8006 29.9042 24.4889 29.3256 25.0184 28.6136C25.5479 27.9016 25.904 27.0759 26.0583 26.2021H27.8902Z" fill="#DD3333"></path><path d="M15.5867 26.2021V30.3034H10.7047C11.4971 29.9042 12.1854 29.3256 12.7149 28.6136C13.2444 27.9016 13.6005 27.0759 13.7548 26.2021H15.5867Z" fill="#DD3333"></path><path d="M37.156 6.60742V26.2024H20.2953C23.1228 25.0899 25.6895 23.4044 27.834 21.252C27.9525 21.2611 28.0717 21.2656 28.1925 21.2656C29.4817 21.2656 30.718 20.7535 31.6296 19.842C32.5412 18.9304 33.0533 17.694 33.0533 16.4049C33.0546 15.6551 32.8814 14.9154 32.5474 14.2441C33.569 11.8214 34.146 9.2346 34.251 6.60742H37.156Z" fill="#DD3333"></path><path d="M33.0553 16.4047C33.0553 17.6939 32.5432 18.9302 31.6316 19.8418C30.72 20.7534 29.4837 21.2655 28.1945 21.2655C27.4291 21.2661 26.6745 21.0858 25.9921 20.7391C25.3097 20.3925 24.7189 19.8895 24.2679 19.2711C24.5855 19.335 24.9086 19.3671 25.2325 19.3668C26.5217 19.3668 27.758 18.8546 28.6696 17.9431C29.5811 17.0315 30.0933 15.7951 30.0933 14.506C30.0949 13.4755 29.7676 12.4713 29.1591 11.6396C30.2586 11.8623 31.2474 12.4584 31.9575 13.3269C32.6676 14.1954 33.0555 15.2828 33.0553 16.4047Z" fill="#DD3333"></path><path d="M13.7641 13.9146V17.6961H9.66284V15.1723C9.81474 15.1834 9.96664 15.1892 10.1185 15.1897C11.4434 15.1918 12.7294 14.742 13.7641 13.9146V13.9146Z" fill="#DD3333"></path><path fill-rule="evenodd" clip-rule="evenodd" d="M0.130859 1.44267C0.130859 1.12807 0.385887 0.873047 0.70048 0.873047H4.80175C5.11634 0.873047 5.37137 1.12807 5.37137 1.44267V30.3034C5.37137 30.618 5.11634 30.873 4.80175 30.873C4.48715 30.873 4.23213 30.618 4.23213 30.3034V2.01229H0.70048C0.385887 2.01229 0.130859 1.75726 0.130859 1.44267Z" fill="#080F0F"></path><path fill-rule="evenodd" clip-rule="evenodd" d="M4.23242 6.60722C4.23242 6.29263 4.48745 6.0376 4.80204 6.0376H37.1565C37.4711 6.0376 37.7261 6.29263 37.7261 6.60722V26.2022C37.7261 26.5167 37.4711 26.7718 37.1565 26.7718H4.80204C4.48745 26.7718 4.23242 26.5167 4.23242 26.2022V6.60722ZM5.37166 7.17684V25.6325H36.5869V7.17684H5.37166Z" fill="#080F0F"></path><path fill-rule="evenodd" clip-rule="evenodd" d="M28.1937 12.1134C25.8238 12.1134 23.9025 14.0346 23.9025 16.4045C23.9025 18.7744 25.8238 20.6956 28.1937 20.6956C30.5636 20.6956 32.4848 18.7744 32.4848 16.4045C32.4848 14.0346 30.5636 12.1134 28.1937 12.1134ZM22.7633 16.4045C22.7633 13.4054 25.1946 10.9741 28.1937 10.9741C31.1928 10.9741 33.6241 13.4054 33.6241 16.4045C33.6241 19.4036 31.1928 21.8349 28.1937 21.8349C25.1946 21.8349 22.7633 19.4036 22.7633 16.4045Z" fill="#080F0F"></path><path fill-rule="evenodd" clip-rule="evenodd" d="M19.1188 26.2019C19.1188 25.8874 19.3738 25.6323 19.6884 25.6323H27.8909C28.2055 25.6323 28.4605 25.8874 28.4605 26.2019V30.3032C28.4605 30.6178 28.2055 30.8728 27.8909 30.8728H19.6884C19.3738 30.8728 19.1188 30.6178 19.1188 30.3032V26.2019ZM20.258 26.7716V29.7336H27.3213V26.7716H20.258Z" fill="#080F0F"></path><path fill-rule="evenodd" clip-rule="evenodd" d="M28.4322 11.0262C28.7181 11.1575 28.8435 11.4957 28.7122 11.7816L28.1043 13.1052C27.8844 13.5826 27.8144 14.1155 27.9033 14.6336C27.9923 15.1517 28.2362 15.6307 28.6028 16.0074C28.8222 16.2329 28.8172 16.5935 28.5918 16.8129C28.3663 17.0323 28.0057 17.0274 27.7863 16.8019C27.2591 16.2602 26.9085 15.5714 26.7805 14.8265C26.6526 14.0816 26.7533 13.3154 27.0694 12.6289C27.0694 12.6288 27.0695 12.6287 27.0695 12.6286L27.6769 11.3062C27.8082 11.0203 28.1464 10.8949 28.4322 11.0262Z" fill="#080F0F"></path><path fill-rule="evenodd" clip-rule="evenodd" d="M28.349 15.8565C28.6518 15.9419 28.828 16.2566 28.7425 16.5594C28.5373 17.2869 28.1164 17.9352 27.5353 18.4187C26.9543 18.9022 26.2403 19.1983 25.4876 19.2679C25.4876 19.2679 25.4876 19.2679 25.4875 19.2679L24.037 19.4023C23.7238 19.4313 23.4463 19.2009 23.4173 18.8877C23.3882 18.5744 23.6186 18.2969 23.9319 18.2679L25.3826 18.1335C25.9061 18.0851 26.4026 17.8792 26.8066 17.543C27.2107 17.2068 27.5034 16.756 27.6461 16.2501C27.7315 15.9473 28.0462 15.7711 28.349 15.8565Z" fill="#080F0F"></path><path fill-rule="evenodd" clip-rule="evenodd" d="M29.8738 17.0376C29.3805 16.8558 28.8437 16.8276 28.3341 16.957C28.0292 17.0344 27.7193 16.8499 27.6419 16.545C27.5645 16.24 27.749 15.9301 28.0539 15.8527C28.7867 15.6668 29.5586 15.7072 30.2679 15.9687C30.9772 16.2302 31.5906 16.7004 32.0273 17.3175C32.0273 17.3175 32.0273 17.3175 32.0274 17.3176L32.8688 18.5061C33.0506 18.7628 32.9898 19.1183 32.733 19.3001C32.4763 19.4819 32.1208 19.4211 31.939 19.1644L31.0975 17.9758L31.0974 17.9757C30.7937 17.5465 30.3671 17.2195 29.8738 17.0376Z" fill="#080F0F"></path><path fill-rule="evenodd" clip-rule="evenodd" d="M9.09338 26.2019C9.09338 25.8874 9.34841 25.6323 9.663 25.6323H15.5871C15.9016 25.6323 16.1567 25.8874 16.1567 26.2019V30.3032C16.1567 30.6178 15.9016 30.8728 15.5871 30.8728H9.663C9.34841 30.8728 9.09338 30.6178 9.09338 30.3032V26.2019ZM10.2326 26.7716V29.7336H15.0174V26.7716H10.2326Z" fill="#080F0F"></path><path fill-rule="evenodd" clip-rule="evenodd" d="M1.64966 10.7083C1.64966 10.3937 1.90469 10.1387 2.21928 10.1387H4.80156C5.11615 10.1387 5.37118 10.3937 5.37118 10.7083C5.37118 11.0229 5.11615 11.2779 4.80156 11.2779H2.21928C1.90469 11.2779 1.64966 11.0229 1.64966 10.7083Z" fill="#080F0F"></path><path fill-rule="evenodd" clip-rule="evenodd" d="M9.09338 22.1009C9.09338 21.7863 9.34841 21.5312 9.663 21.5312H12.2453C12.5599 21.5312 12.8149 21.7863 12.8149 22.1009C12.8149 22.4155 12.5599 22.6705 12.2453 22.6705H9.663C9.34841 22.6705 9.09338 22.4155 9.09338 22.1009Z" fill="#080F0F"></path><path fill-rule="evenodd" clip-rule="evenodd" d="M15.7766 22.1009C15.7766 21.7863 16.0316 21.5312 16.3462 21.5312H18.9285C19.2431 21.5312 19.4981 21.7863 19.4981 22.1009C19.4981 22.4155 19.2431 22.6705 18.9285 22.6705H16.3462C16.0316 22.6705 15.7766 22.4155 15.7766 22.1009Z" fill="#080F0F"></path><path fill-rule="evenodd" clip-rule="evenodd" d="M1.64966 22.1009C1.64966 21.7863 1.90469 21.5312 2.21928 21.5312H4.80156C5.11615 21.5312 5.37118 21.7863 5.37118 22.1009C5.37118 22.4155 5.11615 22.6705 4.80156 22.6705H2.21928C1.90469 22.6705 1.64966 22.4155 1.64966 22.1009Z" fill="#080F0F"></path><path fill-rule="evenodd" clip-rule="evenodd" d="M1.64966 17.9998C1.64966 17.6852 1.90469 17.4302 2.21928 17.4302H4.80156C5.11615 17.4302 5.37118 17.6852 5.37118 17.9998C5.37118 18.3144 5.11615 18.5694 4.80156 18.5694H2.21928C1.90469 18.5694 1.64966 18.3144 1.64966 17.9998Z" fill="#080F0F"></path><path fill-rule="evenodd" clip-rule="evenodd" d="M9.09338 10.7083C9.09338 10.3937 9.34841 10.1387 9.663 10.1387H13.7643C14.0789 10.1387 14.3339 10.3937 14.3339 10.7083V17.6956C14.3339 18.0102 14.0789 18.2653 13.7643 18.2653H9.663C9.34841 18.2653 9.09338 18.0102 9.09338 17.6956V10.7083ZM10.2326 11.2779V17.126H13.1946V11.2779H10.2326Z" fill="#080F0F"></path><path d="M18.9288 11.9235C19.5999 11.9235 20.144 11.3795 20.144 10.7084C20.144 10.0372 19.5999 9.49316 18.9288 9.49316C18.2577 9.49316 17.7136 10.0372 17.7136 10.7084C17.7136 11.3795 18.2577 11.9235 18.9288 11.9235Z" fill="#080F0F"></path><path d="M18.9288 16.177C19.5999 16.177 20.144 15.6329 20.144 14.9618C20.144 14.2906 19.5999 13.7466 18.9288 13.7466C18.2577 13.7466 17.7136 14.2906 17.7136 14.9618C17.7136 15.6329 18.2577 16.177 18.9288 16.177Z" fill="#080F0F"></path></svg>