<svg width="30" height="30" viewBox="0 0 30 30" fill="none" xmlns="http://www.w3.org/2000/svg">
<path d="M24.9156 3.33808V26.662C24.9156 27.3792 24.6307 28.0671 24.1235 28.5742C23.6164 29.0813 22.9285 29.3662 22.2113 29.3662H7.33809C6.86359 29.3661 6.39749 29.241 5.9866 29.0037C5.57571 28.7663 5.23451 28.4251 4.99725 28.0141C14.4756 23.515 21.0282 13.8541 21.0282 2.66202C21.0282 1.97977 21.004 1.30371 20.9555 0.63385H22.2113C22.9285 0.63385 23.6164 0.918759 24.1235 1.4259C24.6307 1.93304 24.9156 2.62087 24.9156 3.33808Z" fill="#DD3333"/>
<path fill-rule="evenodd" clip-rule="evenodd" d="M7.33803 1.26761C6.19457 1.26761 5.26761 2.19457 5.26761 3.33803V26.662C5.26761 27.8054 6.19457 28.7324 7.33803 28.7324H22.2113C23.3547 28.7324 24.2817 27.8054 24.2817 26.662V3.33803C24.2817 2.19457 23.3547 1.26761 22.2113 1.26761H7.33803ZM4 3.33803C4 1.49449 5.49449 0 7.33803 0H22.2113C24.0548 0 25.5493 1.49449 25.5493 3.33803V26.662C25.5493 28.5055 24.0548 30 22.2113 30H7.33803C5.49449 30 4 28.5055 4 26.662V3.33803Z" fill="#080F0F"/>
<path d="M9.19708 6.54926C9.94383 6.54926 10.5492 5.9439 10.5492 5.19714C10.5492 4.45039 9.94383 3.84503 9.19708 3.84503C8.45033 3.84503 7.84497 4.45039 7.84497 5.19714C7.84497 5.9439 8.45033 6.54926 9.19708 6.54926Z" fill="#080F0F"/>
<path fill-rule="evenodd" clip-rule="evenodd" d="M11.1831 24.8028C11.1831 24.4528 11.4669 24.169 11.8169 24.169H17.7324C18.0824 24.169 18.3662 24.4528 18.3662 24.8028C18.3662 25.1528 18.0824 25.4366 17.7324 25.4366H11.8169C11.4669 25.4366 11.1831 25.1528 11.1831 24.8028Z" fill="black"/>
</svg>
