<svg xmlns="http://www.w3.org/2000/svg" width="31" height="30" viewBox="0 0 31 30" fill="none"><path d="M20.3909 24.4849V27.7576H16.4951C17.1274 27.439 17.6767 26.9773 18.0992 26.4092C18.5218 25.841 18.8059 25.1821 18.9291 24.4849H20.3909Z" fill="#DD3333"></path><path d="M9.11939 24.4849V27.7576H5.22363C5.85596 27.439 6.40522 26.9773 6.82775 26.4092C7.25029 25.841 7.53442 25.1821 7.65757 24.4849H9.11939Z" fill="#DD3333"></path><path d="M12.4522 4.72705V7.99978H8.5564C9.18872 7.68121 9.73799 7.2195 10.1605 6.65135C10.5831 6.08321 10.8672 5.4243 10.9903 4.72705H12.4522Z" fill="#DD3333"></path><path d="M12.4517 16.2422V21.2119H6.90625C8.03247 20.9177 9.03998 20.282 9.79038 19.3921C10.5408 18.5023 10.9973 17.4019 11.0972 16.2422H12.4517Z" fill="#DD3333"></path><path d="M30.5117 1.45459V24.4849H10.7444C20.5098 21.2522 27.6292 12.2116 28.0098 1.45459H30.5117Z" fill="#DD3333"></path><path d="M24.5124 6.6665V12.7271H18.5276C19.8226 12.3999 20.9714 11.65 21.792 10.5961C22.6126 9.54221 23.0581 8.24463 23.0579 6.90893C23.0579 6.82772 23.0579 6.7465 23.0524 6.6665H24.5124Z" fill="#DD3333"></path><path d="M30.5123 24.9394H1.42134C1.30079 24.9394 1.18518 24.8915 1.09993 24.8063C1.01469 24.721 0.966797 24.6054 0.966797 24.4848V1.45455C0.966797 1.33399 1.01469 1.21838 1.09993 1.13314C1.18518 1.04789 1.30079 1 1.42134 1H30.5123C30.6328 1 30.7484 1.04789 30.8337 1.13314C30.9189 1.21838 30.9668 1.33399 30.9668 1.45455V24.4848C30.9668 24.6054 30.9189 24.721 30.8337 24.8063C30.7484 24.8915 30.6328 24.9394 30.5123 24.9394ZM1.87589 24.0303H30.0577V1.90909H1.87589V24.0303Z" fill="#080F0F"></path><path d="M9.11883 28.2121H4.39156C4.271 28.2121 4.15539 28.1642 4.07015 28.079C3.98491 27.9937 3.93701 27.8781 3.93701 27.7575V24.4848C3.93701 24.3643 3.98491 24.2487 4.07015 24.1634C4.15539 24.0782 4.271 24.0303 4.39156 24.0303H9.11883C9.23938 24.0303 9.35499 24.0782 9.44024 24.1634C9.52548 24.2487 9.57338 24.3643 9.57338 24.4848V27.7575C9.57338 27.8781 9.52548 27.9937 9.44024 28.079C9.35499 28.1642 9.23938 28.2121 9.11883 28.2121ZM4.8461 27.303H8.66428V24.9394H4.8461V27.303Z" fill="#080F0F"></path><path d="M20.3908 28.2121H15.6635C15.543 28.2121 15.4274 28.1642 15.3421 28.079C15.2569 27.9937 15.209 27.8781 15.209 27.7575V24.4848C15.209 24.3643 15.2569 24.2487 15.3421 24.1634C15.4274 24.0782 15.543 24.0303 15.6635 24.0303H20.3908C20.5114 24.0303 20.627 24.0782 20.7122 24.1634C20.7975 24.2487 20.8453 24.3643 20.8453 24.4848V27.7575C20.8453 27.8781 20.7975 27.9937 20.7122 28.079C20.627 28.1642 20.5114 28.2121 20.3908 28.2121ZM16.1181 27.303H19.9363V24.9394H16.1181V27.303Z" fill="#080F0F"></path><path d="M12.3913 26.6363C12.2708 26.6363 12.1551 26.5884 12.0699 26.5032C11.9847 26.418 11.9368 26.3023 11.9368 26.1818V24.4848C11.9368 24.3643 11.9847 24.2487 12.0699 24.1634C12.1551 24.0782 12.2708 24.0303 12.3913 24.0303C12.5119 24.0303 12.6275 24.0782 12.7127 24.1634C12.798 24.2487 12.8459 24.3643 12.8459 24.4848V26.1818C12.8459 26.3023 12.798 26.418 12.7127 26.5032C12.6275 26.5884 12.5119 26.6363 12.3913 26.6363Z" fill="#080F0F"></path><path d="M12.4521 21.6669H4.69454C4.57398 21.6669 4.45837 21.619 4.37313 21.5337C4.28788 21.4485 4.23999 21.3329 4.23999 21.2123V16.2426C4.23999 16.1221 4.28788 16.0065 4.37313 15.9212C4.45837 15.836 4.57398 15.7881 4.69454 15.7881H12.4521C12.5727 15.7881 12.6883 15.836 12.7735 15.9212C12.8588 16.0065 12.9067 16.1221 12.9067 16.2426V21.2123C12.9067 21.3329 12.8588 21.4485 12.7735 21.5337C12.6883 21.619 12.5727 21.6669 12.4521 21.6669ZM5.14908 20.7578H11.9976V16.6972H5.14908V20.7578Z" fill="#080F0F"></path><path d="M27.2397 21.6669H15.7246C15.604 21.6669 15.4884 21.619 15.4032 21.5338C15.3179 21.4485 15.27 21.3329 15.27 21.2124C15.27 21.0918 15.3179 20.9762 15.4032 20.891C15.4884 20.8057 15.604 20.7578 15.7246 20.7578H27.2397C27.3603 20.7578 27.4759 20.8057 27.5611 20.891C27.6464 20.9762 27.6943 21.0918 27.6943 21.2124C27.6943 21.3329 27.6464 21.4485 27.5611 21.5338C27.4759 21.619 27.3603 21.6669 27.2397 21.6669Z" fill="#080F0F"></path><path d="M27.2397 18.394H15.7246C15.604 18.394 15.4884 18.3461 15.4032 18.2608C15.3179 18.1756 15.27 18.06 15.27 17.9394C15.27 17.8189 15.3179 17.7032 15.4032 17.618C15.4884 17.5328 15.604 17.4849 15.7246 17.4849H27.2397C27.3603 17.4849 27.4759 17.5328 27.5611 17.618C27.6464 17.7032 27.6943 17.8189 27.6943 17.9394C27.6943 18.06 27.6464 18.1756 27.5611 18.2608C27.4759 18.3461 27.3603 18.394 27.2397 18.394Z" fill="#080F0F"></path><path d="M26.2096 11.788H24.5127C24.3921 11.788 24.2765 11.7401 24.1912 11.6549C24.106 11.5696 24.0581 11.454 24.0581 11.3335C24.0581 11.2129 24.106 11.0973 24.1912 11.012C24.2765 10.9268 24.3921 10.8789 24.5127 10.8789H26.2096C26.3302 10.8789 26.4458 10.9268 26.531 11.012C26.6163 11.0973 26.6642 11.2129 26.6642 11.3335C26.6642 11.454 26.6163 11.5696 26.531 11.6549C26.4458 11.7401 26.3302 11.788 26.2096 11.788V11.788Z" fill="#080F0F"></path><path d="M26.2096 8.51505H24.5127C24.3921 8.51505 24.2765 8.46715 24.1912 8.38191C24.106 8.29667 24.0581 8.18106 24.0581 8.0605C24.0581 7.93995 24.106 7.82434 24.1912 7.7391C24.2765 7.65385 24.3921 7.60596 24.5127 7.60596H26.2096C26.3302 7.60596 26.4458 7.65385 26.531 7.7391C26.6163 7.82434 26.6642 7.93995 26.6642 8.0605C26.6642 8.18106 26.6163 8.29667 26.531 8.38191C26.4458 8.46715 26.3302 8.51505 26.2096 8.51505V8.51505Z" fill="#080F0F"></path><path d="M23.1184 7.1212C22.9978 7.1212 22.8822 7.0733 22.7969 6.98806C22.7117 6.90282 22.6638 6.7872 22.6638 6.66665V4.96968C22.6638 4.84913 22.7117 4.73352 22.7969 4.64827C22.8822 4.56303 22.9978 4.51514 23.1184 4.51514C23.2389 4.51514 23.3545 4.56303 23.4398 4.64827C23.525 4.73352 23.5729 4.84913 23.5729 4.96968V6.66665C23.5729 6.7872 23.525 6.90282 23.4398 6.98806C23.3545 7.0733 23.2389 7.1212 23.1184 7.1212Z" fill="#080F0F"></path><path d="M19.8454 7.1212C19.7249 7.1212 19.6093 7.0733 19.524 6.98806C19.4388 6.90282 19.3909 6.7872 19.3909 6.66665V4.96968C19.3909 4.84913 19.4388 4.73352 19.524 4.64827C19.6093 4.56303 19.7249 4.51514 19.8454 4.51514C19.966 4.51514 20.0816 4.56303 20.1668 4.64827C20.2521 4.73352 20.3 4.84913 20.3 4.96968V6.66665C20.3 6.7872 20.2521 6.90282 20.1668 6.98806C20.0816 7.0733 19.966 7.1212 19.8454 7.1212Z" fill="#080F0F"></path><path d="M18.4518 8.51505H16.7548C16.6343 8.51505 16.5187 8.46715 16.4334 8.38191C16.3482 8.29667 16.3003 8.18106 16.3003 8.0605C16.3003 7.93995 16.3482 7.82434 16.4334 7.7391C16.5187 7.65385 16.6343 7.60596 16.7548 7.60596H18.4518C18.5724 7.60596 18.688 7.65385 18.7732 7.7391C18.8585 7.82434 18.9064 7.93995 18.9064 8.0605C18.9064 8.18106 18.8585 8.29667 18.7732 8.38191C18.688 8.46715 18.5724 8.51505 18.4518 8.51505Z" fill="#080F0F"></path><path d="M18.4518 11.788H16.7548C16.6343 11.788 16.5187 11.7401 16.4334 11.6549C16.3482 11.5696 16.3003 11.454 16.3003 11.3335C16.3003 11.2129 16.3482 11.0973 16.4334 11.012C16.5187 10.9268 16.6343 10.8789 16.7548 10.8789H18.4518C18.5724 10.8789 18.688 10.9268 18.7732 11.012C18.8585 11.0973 18.9064 11.2129 18.9064 11.3335C18.9064 11.454 18.8585 11.5696 18.7732 11.6549C18.688 11.7401 18.5724 11.788 18.4518 11.788Z" fill="#080F0F"></path><path d="M19.8454 14.879C19.7249 14.879 19.6093 14.8311 19.524 14.7459C19.4388 14.6606 19.3909 14.545 19.3909 14.4245V12.7275C19.3909 12.6069 19.4388 12.4913 19.524 12.4061C19.6093 12.3208 19.7249 12.2729 19.8454 12.2729C19.966 12.2729 20.0816 12.3208 20.1668 12.4061C20.2521 12.4913 20.3 12.6069 20.3 12.7275V14.4245C20.3 14.545 20.2521 14.6606 20.1668 14.7459C20.0816 14.8311 19.966 14.879 19.8454 14.879Z" fill="#080F0F"></path><path d="M23.1184 14.879C22.9978 14.879 22.8822 14.8311 22.7969 14.7459C22.7117 14.6606 22.6638 14.545 22.6638 14.4245V12.7275C22.6638 12.6069 22.7117 12.4913 22.7969 12.4061C22.8822 12.3208 22.9978 12.2729 23.1184 12.2729C23.2389 12.2729 23.3545 12.3208 23.4398 12.4061C23.525 12.4913 23.5729 12.6069 23.5729 12.7275V14.4245C23.5729 14.545 23.525 14.6606 23.4398 14.7459C23.3545 14.8311 23.2389 14.879 23.1184 14.879Z" fill="#080F0F"></path><path d="M24.5125 13.1816H18.4519C18.3313 13.1816 18.2157 13.1337 18.1305 13.0485C18.0452 12.9632 17.9973 12.8476 17.9973 12.7271V6.66646C17.9973 6.54591 18.0452 6.4303 18.1305 6.34505C18.2157 6.25981 18.3313 6.21191 18.4519 6.21191H24.5125C24.633 6.21191 24.7486 6.25981 24.8339 6.34505C24.9191 6.4303 24.967 6.54591 24.967 6.66646V12.7271C24.967 12.8476 24.9191 12.9632 24.8339 13.0485C24.7486 13.1337 24.633 13.1816 24.5125 13.1816ZM18.9064 12.2725H24.0579V7.121H18.9064V12.2725Z" fill="#080F0F"></path><path d="M21.4819 10.6664C22.0175 10.6664 22.4516 10.2323 22.4516 9.69675C22.4516 9.1612 22.0175 8.72705 21.4819 8.72705C20.9464 8.72705 20.5122 9.1612 20.5122 9.69675C20.5122 10.2323 20.9464 10.6664 21.4819 10.6664Z" fill="#080F0F"></path><path d="M4.93623 13.4244C4.81568 13.4244 4.70007 13.3765 4.61483 13.2913C4.52958 13.206 4.48169 13.0904 4.48169 12.9699V11.2729C4.48169 11.1524 4.52958 11.0367 4.61483 10.9515C4.70007 10.8663 4.81568 10.8184 4.93623 10.8184C5.05679 10.8184 5.1724 10.8663 5.25764 10.9515C5.34289 11.0367 5.39078 11.1524 5.39078 11.2729V12.9699C5.39078 13.0904 5.34289 13.206 5.25764 13.2913C5.1724 13.3765 5.05679 13.4244 4.93623 13.4244Z" fill="#080F0F"></path><path d="M8.57247 13.4244C8.45191 13.4244 8.3363 13.3765 8.25106 13.2913C8.16581 13.206 8.11792 13.0904 8.11792 12.9699V11.2729C8.11792 11.1524 8.16581 11.0367 8.25106 10.9515C8.3363 10.8663 8.45191 10.8184 8.57247 10.8184C8.69302 10.8184 8.80863 10.8663 8.89387 10.9515C8.97912 11.0367 9.02701 11.1524 9.02701 11.2729V12.9699C9.02701 13.0904 8.97912 13.206 8.89387 13.2913C8.80863 13.3765 8.69302 13.4244 8.57247 13.4244Z" fill="#080F0F"></path><path d="M12.2097 13.4244C12.0891 13.4244 11.9735 13.3765 11.8883 13.2913C11.803 13.206 11.7551 13.0904 11.7551 12.9699V11.2729C11.7551 11.1524 11.803 11.0367 11.8883 10.9515C11.9735 10.8663 12.0891 10.8184 12.2097 10.8184C12.3302 10.8184 12.4458 10.8663 12.5311 10.9515C12.6163 11.0367 12.6642 11.1524 12.6642 11.2729V12.9699C12.6642 13.0904 12.6163 13.206 12.5311 13.2913C12.4458 13.3765 12.3302 13.4244 12.2097 13.4244Z" fill="#080F0F"></path><path d="M12.4521 8.45477H4.69454C4.57398 8.45477 4.45837 8.40687 4.37313 8.32163C4.28788 8.23639 4.23999 8.12077 4.23999 8.00022V4.72749C4.23999 4.60694 4.28788 4.49133 4.37313 4.40609C4.45837 4.32084 4.57398 4.27295 4.69454 4.27295H12.4521C12.5727 4.27295 12.6883 4.32084 12.7735 4.40609C12.8588 4.49133 12.9067 4.60694 12.9067 4.72749V8.00022C12.9067 8.12077 12.8588 8.23639 12.7735 8.32163C12.6883 8.40687 12.5727 8.45477 12.4521 8.45477ZM5.14908 7.54568H11.9976V5.18204H5.14908V7.54568Z" fill="#080F0F"></path><path d="M8.57247 8.45477C8.45191 8.45477 8.3363 8.40687 8.25106 8.32163C8.16581 8.23639 8.11792 8.12077 8.11792 8.00022V4.72749C8.11792 4.60694 8.16581 4.49133 8.25106 4.40609C8.3363 4.32084 8.45191 4.27295 8.57247 4.27295C8.69302 4.27295 8.80863 4.32084 8.89387 4.40609C8.97912 4.49133 9.02701 4.60694 9.02701 4.72749V8.00022C9.02701 8.12077 8.97912 8.23639 8.89387 8.32163C8.80863 8.40687 8.69302 8.45477 8.57247 8.45477Z" fill="#080F0F"></path></svg>