<svg width="90" height="21" viewBox="0 0 90 21" fill="none" xmlns="http://www.w3.org/2000/svg">
<path fill-rule="evenodd" clip-rule="evenodd" d="M82.1326 5.14516L76.3841 20.9986L68.1041 20.9986L73.5383 6.00752C77.8357 5.14516 82.1326 5.14516 82.1326 5.14516ZM74.3001 3.90792L75.4034 0.862599C79.5961 0.0215538 83.788 0.00103698 83.9897 4.99329e-05C83.9947 2.52522e-05 83.9972 1.2782e-05 83.9972 0L82.8937 3.04432C82.8937 3.04432 78.6234 3.04432 74.3001 3.90792ZM53.3981 20.9986C50.3123 20.9986 47.296 20.7011 44.3763 20.1357L45.4271 17.2353C48.0126 17.7074 50.6769 17.9531 53.3979 17.9531H53.3992C56.1919 17.9531 58.219 17.3315 58.4387 15.4343C58.5451 14.5304 57.6913 13.8813 56.1286 13.0198C55.3997 12.6175 54.718 12.2974 54.061 11.9888C53.1054 11.54 52.2021 11.1158 51.2819 10.4991C49.7269 9.45825 49.0575 7.82317 49.5813 6.08997C50.193 4.06592 51.6157 2.89137 53.781 1.7846C56.322 0.487103 58.3341 0 63.2315 0C66.3174 0 69.3351 0.297806 72.2547 0.862552L71.2026 3.76187C68.618 3.29078 65.9541 3.04427 63.2315 3.04427C60.4377 3.04427 58.4103 3.66851 58.1909 5.56505C58.0866 6.46904 58.939 7.11867 60.5029 7.98051C61.2313 8.3824 61.9129 8.70222 62.5701 9.01057C63.5254 9.45879 64.429 9.88278 65.3498 10.4994C66.9034 11.5404 67.5731 13.1765 67.049 14.91C66.4374 16.933 65.0146 18.1075 62.85 19.2147C60.3093 20.5114 58.2963 20.9986 53.3991 20.9986H53.3981ZM46.5551 6.29885L41.2256 20.9986H32.9446L37.7405 7.76978C39.3397 3.3598 33.4708 4.97215 32.1594 5.98499C31.1292 6.78119 29.2516 8.5936 28.5609 10.4973L24.7541 20.9986H16.4727L21.2687 7.76973C22.8674 3.35975 16.9986 4.9721 15.6872 5.98494C14.6562 6.78152 12.7782 8.59503 12.0882 10.4994L8.28113 21H0L7.61306 0.00123848C10.2504 0.00123848 11.6767 0.608521 12.8751 1.78665C13.3129 2.21678 13.5868 2.77552 13.7366 3.37147C15.29 2.43089 16.6634 1.72653 17.5878 1.36642C19.3091 0.692356 21.448 0.000142901 24.0857 0.000857407C26.722 0.000857407 28.1486 0.60814 29.3474 1.78631C29.7851 2.2164 30.0588 2.77519 30.2089 3.37113C31.7622 2.43056 33.1353 1.7262 34.0601 1.36604C35.7803 0.691975 37.921 -0.00038107 40.5577 0.000476337C43.1946 0.000476337 44.6213 0.607759 45.8193 1.78598C47.0164 2.95972 46.9884 5.10715 46.5551 6.29885ZM87.4208 0.307116H87.9164V0.000402109H86.5167V0.307116H87.0121V1.58551H87.4208V0.307116ZM89.4688 1.58556H89.8769H89.8771V0.000449742H89.4004L89.0462 0.795171L88.6901 0.000449742H88.218V1.58556H88.6022V0.524278L88.895 1.21259H89.1756L89.4688 0.524278V1.58556Z" fill="#080F0F"/>
</svg>
