<svg width="30" height="31" viewBox="0 0 30 31" fill="none" xmlns="http://www.w3.org/2000/svg">
<path d="M18.8534 14.8037V17.2037L17.6534 19.0037L13.4534 19.551C17.0534 18.4037 18.4626 13.466 18.8534 11.8037V14.8037Z" fill="#DD3333"/>
<path d="M26.0534 17.2037V26.1378H17.6534C18.8534 26.2037 21.9124 25.1793 23.0534 23.8037C25.4534 20.9102 25.9676 12.9552 26.0534 11.2037L26.0534 17.2037Z" fill="#DD3333"/>
<path d="M29.5455 11.8998C29.666 11.8998 29.7816 11.8519 29.8669 11.7667C29.9521 11.6814 30 11.5658 30 11.4452C30 11.3247 29.9521 11.2091 29.8669 11.1238C29.7816 11.0386 29.666 10.9907 29.5455 10.9907H26.7273V8.02101H29.5455C29.666 8.02101 29.7816 7.97312 29.8669 7.88787C29.9521 7.80263 30 7.68701 30 7.56646C30 7.44591 29.9521 7.33029 29.8669 7.24505C29.7816 7.1598 29.666 7.11191 29.5455 7.11191H26.7273V4.05131C26.7273 3.93076 26.6794 3.81514 26.5941 3.7299C26.5089 3.64465 26.3933 3.59676 26.2727 3.59676H23.2121V0.778581C23.2121 0.658028 23.1642 0.542413 23.079 0.457169C22.9937 0.371925 22.8781 0.324036 22.7576 0.324036C22.637 0.324036 22.5214 0.371925 22.4362 0.457169C22.3509 0.542413 22.303 0.658028 22.303 0.778581V3.59676H19.3333V0.778581C19.3333 0.658028 19.2854 0.542413 19.2002 0.457169C19.115 0.371925 18.9993 0.324036 18.8788 0.324036C18.7582 0.324036 18.6426 0.371925 18.5574 0.457169C18.4721 0.542413 18.4242 0.658028 18.4242 0.778581V3.59676H15.4545V0.778581C15.4545 0.658028 15.4067 0.542413 15.3214 0.457169C15.2362 0.371925 15.1206 0.324036 15 0.324036C14.8794 0.324036 14.7638 0.371925 14.6786 0.457169C14.5933 0.542413 14.5455 0.658028 14.5455 0.778581V3.59676H11.5758V0.778581C11.5758 0.658028 11.5279 0.542413 11.4426 0.457169C11.3574 0.371925 11.2418 0.324036 11.1212 0.324036C11.0007 0.324036 10.885 0.371925 10.7998 0.457169C10.7146 0.542413 10.6667 0.658028 10.6667 0.778581V3.59676H7.69697V0.778581C7.69697 0.658028 7.64908 0.542413 7.56383 0.457169C7.47859 0.371925 7.36298 0.324036 7.24242 0.324036C7.12187 0.324036 7.00626 0.371925 6.92102 0.457169C6.83577 0.542413 6.78788 0.658028 6.78788 0.778581V3.59676H3.72727C3.60672 3.59676 3.49111 3.64465 3.40587 3.7299C3.32062 3.81514 3.27273 3.93076 3.27273 4.05131V7.11191H0.454545C0.333993 7.11191 0.218382 7.1598 0.133138 7.24505C0.0478942 7.33029 0 7.44591 0 7.56646C0 7.68701 0.0478942 7.80263 0.133138 7.88787C0.218382 7.97312 0.333993 8.02101 0.454545 8.02101H3.27273V10.9907H0.454545C0.333993 10.9907 0.218382 11.0386 0.133138 11.1238C0.0478942 11.2091 0 11.3247 0 11.4452C0 11.5658 0.0478942 11.6814 0.133138 11.7667C0.218382 11.8519 0.333993 11.8998 0.454545 11.8998H3.27273V14.8695H0.454545C0.333993 14.8695 0.218382 14.9174 0.133138 15.0026C0.0478942 15.0879 0 15.2035 0 15.324C0 15.4446 0.0478942 15.5602 0.133138 15.6454C0.218382 15.7307 0.333993 15.7786 0.454545 15.7786H3.27273V18.7483H0.454545C0.333993 18.7483 0.218382 18.7962 0.133138 18.8814C0.0478942 18.9667 0 19.0823 0 19.2028C0 19.3234 0.0478942 19.439 0.133138 19.5242C0.218382 19.6095 0.333993 19.6574 0.454545 19.6574H3.27273V22.6271H0.454545C0.333993 22.6271 0.218382 22.675 0.133138 22.7602C0.0478942 22.8454 0 22.9611 0 23.0816C0 23.2022 0.0478942 23.3178 0.133138 23.403C0.218382 23.4883 0.333993 23.5362 0.454545 23.5362H3.27273V26.5968C3.27273 26.7173 3.32062 26.8329 3.40587 26.9182C3.49111 27.0034 3.60672 27.0513 3.72727 27.0513H6.78788V29.8695C6.78788 29.99 6.83577 30.1057 6.92102 30.1909C7.00626 30.2761 7.12187 30.324 7.24242 30.324C7.36298 30.324 7.47859 30.2761 7.56383 30.1909C7.64908 30.1057 7.69697 29.99 7.69697 29.8695V27.0513H10.6667V29.8695C10.6667 29.99 10.7146 30.1057 10.7998 30.1909C10.885 30.2761 11.0007 30.324 11.1212 30.324C11.2418 30.324 11.3574 30.2761 11.4426 30.1909C11.5279 30.1057 11.5758 29.99 11.5758 29.8695V27.0513H14.5455V29.8695C14.5455 29.99 14.5933 30.1057 14.6786 30.1909C14.7638 30.2761 14.8794 30.324 15 30.324C15.1206 30.324 15.2362 30.2761 15.3214 30.1909C15.4067 30.1057 15.4545 29.99 15.4545 29.8695V27.0513H18.4242V29.8695C18.4242 29.99 18.4721 30.1057 18.5574 30.1909C18.6426 30.2761 18.7582 30.324 18.8788 30.324C18.9993 30.324 19.115 30.2761 19.2002 30.1909C19.2854 30.1057 19.3333 29.99 19.3333 29.8695V27.0513H22.303V29.8695C22.303 29.99 22.3509 30.1057 22.4362 30.1909C22.5214 30.2761 22.637 30.324 22.7576 30.324C22.8781 30.324 22.9937 30.2761 23.079 30.1909C23.1642 30.1057 23.2121 29.99 23.2121 29.8695V27.0513H26.2727C26.3933 27.0513 26.5089 27.0034 26.5941 26.9182C26.6794 26.8329 26.7273 26.7173 26.7273 26.5968V23.5362H29.5455C29.666 23.5362 29.7816 23.4883 29.8669 23.403C29.9521 23.3178 30 23.2022 30 23.0816C30 22.9611 29.9521 22.8454 29.8669 22.7602C29.7816 22.675 29.666 22.6271 29.5455 22.6271H26.7273V19.6574H29.5455C29.666 19.6574 29.7816 19.6095 29.8669 19.5242C29.9521 19.439 30 19.3234 30 19.2028C30 19.0823 29.9521 18.9667 29.8669 18.8814C29.7816 18.7962 29.666 18.7483 29.5455 18.7483H26.7273V15.7786H29.5455C29.666 15.7786 29.7816 15.7307 29.8669 15.6454C29.9521 15.5602 30 15.4446 30 15.324C30 15.2035 29.9521 15.0879 29.8669 15.0026C29.7816 14.9174 29.666 14.8695 29.5455 14.8695H26.7273V11.8998H29.5455ZM25.8182 26.1422H4.18182V4.50585H25.8182V26.1422Z" fill="black"/>
<path d="M19.4545 17.3846V11.324C19.4545 11.2034 19.4066 11.0878 19.3214 11.0026C19.2361 10.9173 19.1205 10.8694 19 10.8694H11C10.8794 10.8694 10.7638 10.9173 10.6785 11.0026C10.5933 11.0878 10.5454 11.2034 10.5454 11.324V19.324C10.5454 19.4445 10.5933 19.5602 10.6785 19.6454C10.7638 19.7306 10.8794 19.7785 11 19.7785H17.0606C17.1202 19.7786 17.1794 19.7668 17.2345 19.7439C17.2896 19.7211 17.3397 19.6875 17.3818 19.6452L19.3212 17.7058C19.3635 17.6637 19.397 17.6136 19.4199 17.5585C19.4428 17.5034 19.4545 17.4443 19.4545 17.3846V17.3846ZM18.5454 17.1961L16.8721 18.8694H11.4545V11.7785H18.5454V17.1961Z" fill="black"/>
<path d="M22.6364 18.8694C22.5158 18.8694 22.4002 18.9173 22.315 19.0026C22.2297 19.0878 22.1818 19.2034 22.1818 19.324V22.5058H19C18.8795 22.5058 18.7639 22.5537 18.6786 22.6389C18.5934 22.7242 18.5455 22.8398 18.5455 22.9604C18.5455 23.0809 18.5934 23.1965 18.6786 23.2818C18.7639 23.367 18.8795 23.4149 19 23.4149H22.6364C22.7569 23.4149 22.8725 23.367 22.9578 23.2818C23.043 23.1965 23.0909 23.0809 23.0909 22.9604V19.324C23.0909 19.2034 23.043 19.0878 22.9578 19.0026C22.8725 18.9173 22.7569 18.8694 22.6364 18.8694Z" fill="black"/>
<path d="M19 8.14212H22.1818V11.3239C22.1818 11.4445 22.2297 11.5601 22.315 11.6454C22.4002 11.7306 22.5158 11.7785 22.6364 11.7785C22.7569 11.7785 22.8725 11.7306 22.9578 11.6454C23.043 11.5601 23.0909 11.4445 23.0909 11.3239V7.68758C23.0909 7.56702 23.043 7.45141 22.9578 7.36617C22.8725 7.28092 22.7569 7.23303 22.6364 7.23303H19C18.8795 7.23303 18.7639 7.28092 18.6786 7.36617C18.5934 7.45141 18.5455 7.56702 18.5455 7.68758C18.5455 7.80813 18.5934 7.92375 18.6786 8.00899C18.7639 8.09423 18.8795 8.14212 19 8.14212Z" fill="black"/>
<path d="M7.36354 11.7785C7.48409 11.7785 7.59971 11.7306 7.68495 11.6454C7.77019 11.5601 7.81809 11.4445 7.81809 11.3239V8.14212H10.9999C11.1205 8.14212 11.2361 8.09423 11.3213 8.00899C11.4066 7.92375 11.4545 7.80813 11.4545 7.68758C11.4545 7.56702 11.4066 7.45141 11.3213 7.36617C11.2361 7.28092 11.1205 7.23303 10.9999 7.23303H7.36354C7.24299 7.23303 7.12738 7.28092 7.04213 7.36617C6.95689 7.45141 6.909 7.56702 6.909 7.68758V11.3239C6.909 11.4445 6.95689 11.5601 7.04213 11.6454C7.12738 11.7306 7.24299 11.7785 7.36354 11.7785Z" fill="black"/>
<path d="M10.9999 22.5058H7.81809V19.324C7.81809 19.2034 7.77019 19.0878 7.68495 19.0026C7.59971 18.9173 7.48409 18.8694 7.36354 18.8694C7.24299 18.8694 7.12738 18.9173 7.04213 19.0026C6.95689 19.0878 6.909 19.2034 6.909 19.324V22.9604C6.909 23.0809 6.95689 23.1965 7.04213 23.2818C7.12738 23.367 7.24299 23.4149 7.36354 23.4149H10.9999C11.1205 23.4149 11.2361 23.367 11.3213 23.2818C11.4066 23.1965 11.4545 23.0809 11.4545 22.9604C11.4545 22.8398 11.4066 22.7242 11.3213 22.6389C11.2361 22.5537 11.1205 22.5058 10.9999 22.5058Z" fill="black"/>
<path d="M22.6364 16.2937C23.1719 16.2937 23.6061 15.8596 23.6061 15.324C23.6061 14.7885 23.1719 14.3543 22.6364 14.3543C22.1008 14.3543 21.6667 14.7885 21.6667 15.324C21.6667 15.8596 22.1008 16.2937 22.6364 16.2937Z" fill="black"/>
<path d="M15 8.65741C15.5355 8.65741 15.9697 8.22326 15.9697 7.68771C15.9697 7.15217 15.5355 6.71802 15 6.71802C14.4644 6.71802 14.0303 7.15217 14.0303 7.68771C14.0303 8.22326 14.4644 8.65741 15 8.65741Z" fill="black"/>
<path d="M7.36368 16.2937C7.89923 16.2937 8.33338 15.8596 8.33338 15.324C8.33338 14.7885 7.89923 14.3543 7.36368 14.3543C6.82813 14.3543 6.39398 14.7885 6.39398 15.324C6.39398 15.8596 6.82813 16.2937 7.36368 16.2937Z" fill="black"/>
<path d="M15.1213 23.9907C15.6569 23.9907 16.091 23.5566 16.091 23.021C16.091 22.4855 15.6569 22.0513 15.1213 22.0513C14.5858 22.0513 14.1516 22.4855 14.1516 23.021C14.1516 23.5566 14.5858 23.9907 15.1213 23.9907Z" fill="black"/>
</svg>
