<svg xmlns="http://www.w3.org/2000/svg" width="30" height="30" viewBox="0 0 30 30" fill="none"><path d="M18.031 14.7577C18.031 16.6223 17.2903 18.4105 15.9719 19.7289C14.6534 21.0474 12.8652 21.788 11.0007 21.788C9.72351 21.7883 8.47039 21.4406 7.37592 20.7823C6.28145 20.124 5.38698 19.18 4.78857 18.0517C5.98087 18.9072 7.41199 19.3662 8.87948 19.3638C10.744 19.3638 12.5322 18.6231 13.8507 17.3047C15.1691 15.9862 15.9098 14.198 15.9098 12.3335C15.9116 11.185 15.6306 10.0537 15.0916 9.03955C16.0016 9.68963 16.7431 10.5477 17.2544 11.5424C17.7657 12.537 18.032 13.6394 18.031 14.7577V14.7577Z" fill="#DD3333"></path><path d="M27.1108 4.45459C26.9329 6.18267 26.5704 7.88673 26.0296 9.53763V13.7879H24.172C21.2359 19.0695 16.4555 23.0831 10.7454 25.0607H29.5448V4.45459H27.1108ZM26.0296 21.9091H22.1508V17.0607H26.0296V21.9091Z" fill="#DD3333"></path><path d="M26.0292 9.25342V13.788H22.1504V11.4849C22.9357 11.4851 23.7073 11.2791 24.388 10.8875C25.0687 10.4959 25.6346 9.93241 26.0292 9.25342V9.25342Z" fill="#DD3333"></path><path d="M26.0292 17.2534V21.788H22.1504V19.4849C22.9357 19.4851 23.7073 19.2791 24.388 18.8875C25.0687 18.4959 25.6346 17.9324 26.0292 17.2534V17.2534Z" fill="#DD3333"></path><path d="M11 22.2426C9.01557 22.2404 7.11307 21.4511 5.70987 20.0479C4.30668 18.6447 3.51738 16.7422 3.51514 14.7578C3.51738 12.7734 4.30668 10.8709 5.70987 9.4677C7.11307 8.0645 9.01557 7.27519 11 7.27295C12.9844 7.27519 14.8869 8.0645 16.2901 9.4677C17.6933 10.8709 18.4826 12.7734 18.4848 14.7578C18.4826 16.7422 17.6933 18.6447 16.2901 20.0479C14.8869 21.4511 12.9844 22.2404 11 22.2426V22.2426ZM11 8.18204C9.25658 8.18397 7.58512 8.87738 6.35235 10.1102C5.11957 11.3429 4.42615 13.0144 4.42423 14.7578C4.42615 16.5012 5.11957 18.1727 6.35235 19.4054C7.58512 20.6382 9.25658 21.3316 11 21.3336C12.7434 21.3316 14.4148 20.6382 15.6476 19.4054C16.8804 18.1727 17.5738 16.5012 17.5757 14.7578C17.5738 13.0144 16.8804 11.3429 15.6476 10.1102C14.4148 8.87738 12.7434 8.18397 11 8.18204V8.18204Z" fill="#080F0F"></path><path d="M10.9999 17.1516C10.3652 17.1508 9.75679 16.8984 9.30802 16.4496C8.85924 16.0008 8.60676 15.3924 8.60596 14.7577C8.60676 14.123 8.85924 13.5146 9.30802 13.0658C9.75679 12.6171 10.3652 12.3646 10.9999 12.3638C11.6346 12.3646 12.243 12.6171 12.6918 13.0658C13.1406 13.5146 13.393 14.123 13.3938 14.7577C13.393 15.3924 13.1406 16.0008 12.6918 16.4496C12.243 16.8984 11.6346 17.1508 10.9999 17.1516ZM10.9999 13.2729C10.6062 13.2733 10.2288 13.4299 9.95048 13.7083C9.67212 13.9866 9.51553 14.3641 9.51505 14.7577C9.51553 15.1514 9.67212 15.5288 9.95048 15.8071C10.2288 16.0855 10.6062 16.2421 10.9999 16.2426C11.3936 16.2421 11.771 16.0855 12.0493 15.8071C12.3277 15.5288 12.4843 15.1514 12.4847 14.7577C12.4843 14.3641 12.3277 13.9866 12.0493 13.7083C11.771 13.4299 11.3936 13.2733 10.9999 13.2729V13.2729Z" fill="#080F0F"></path><path d="M29.5455 25.5152H0.454545C0.333993 25.5152 0.218382 25.4673 0.133138 25.382C0.0478942 25.2968 0 25.1812 0 25.0606V4.45455C0 4.33399 0.0478942 4.21838 0.133138 4.13314C0.218382 4.04789 0.333993 4 0.454545 4H29.5455C29.666 4 29.7816 4.04789 29.8669 4.13314C29.9521 4.21838 30 4.33399 30 4.45455V25.0606C30 25.1812 29.9521 25.2968 29.8669 25.382C29.7816 25.4673 29.666 25.5152 29.5455 25.5152V25.5152ZM0.909091 24.6061H29.0909V4.90909H0.909091V24.6061Z" fill="#080F0F"></path><path d="M3.96945 8.69721C4.505 8.69721 4.93915 8.26306 4.93915 7.72751C4.93915 7.19196 4.505 6.75781 3.96945 6.75781C3.4339 6.75781 2.99976 7.19196 2.99976 7.72751C2.99976 8.26306 3.4339 8.69721 3.96945 8.69721Z" fill="#080F0F"></path><path d="M18.0305 8.69721C18.566 8.69721 19.0002 8.26306 19.0002 7.72751C19.0002 7.19196 18.566 6.75781 18.0305 6.75781C17.4949 6.75781 17.0608 7.19196 17.0608 7.72751C17.0608 8.26306 17.4949 8.69721 18.0305 8.69721Z" fill="#080F0F"></path><path d="M3.96945 22.7578C4.505 22.7578 4.93915 22.3236 4.93915 21.7881C4.93915 21.2525 4.505 20.8184 3.96945 20.8184C3.4339 20.8184 2.99976 21.2525 2.99976 21.7881C2.99976 22.3236 3.4339 22.7578 3.96945 22.7578Z" fill="#080F0F"></path><path d="M18.0305 22.7578C18.566 22.7578 19.0002 22.3236 19.0002 21.7881C19.0002 21.2525 18.566 20.8184 18.0305 20.8184C17.4949 20.8184 17.0608 21.2525 17.0608 21.7881C17.0608 22.3236 17.4949 22.7578 18.0305 22.7578Z" fill="#080F0F"></path><path d="M11 13.2729C10.8794 13.2729 10.7638 13.2251 10.6785 13.1398C10.5933 13.0546 10.5454 12.939 10.5454 12.8184V7.72749C10.5454 7.60694 10.5933 7.49133 10.6785 7.40609C10.7638 7.32084 10.8794 7.27295 11 7.27295C11.1205 7.27295 11.2361 7.32084 11.3214 7.40609C11.4066 7.49133 11.4545 7.60694 11.4545 7.72749V12.8184C11.4545 12.939 11.4066 13.0546 11.3214 13.1398C11.2361 13.2251 11.1205 13.2729 11 13.2729Z" fill="#080F0F"></path><path d="M9.31996 14.2424C9.24039 14.2425 9.16221 14.2216 9.09329 14.1818L4.6842 11.6364C4.63249 11.6065 4.58717 11.5667 4.55084 11.5193C4.51451 11.4719 4.48787 11.4179 4.47245 11.3602C4.45703 11.3025 4.45313 11.2423 4.46097 11.1831C4.4688 11.1239 4.48823 11.0669 4.51814 11.0152C4.5479 10.9634 4.58757 10.9181 4.63488 10.8817C4.6822 10.8453 4.73623 10.8186 4.79387 10.8031C4.85151 10.7877 4.91164 10.7837 4.97082 10.7915C5.03 10.7993 5.08707 10.8186 5.13874 10.8485L9.54783 13.394C9.65214 13.4544 9.7282 13.5537 9.75933 13.6702C9.79047 13.7867 9.77413 13.9107 9.71389 14.0152C9.67402 14.0844 9.6166 14.1418 9.54744 14.1817C9.47827 14.2216 9.39981 14.2426 9.31996 14.2424V14.2424Z" fill="#080F0F"></path><path d="M4.91208 18.7271C4.83223 18.7272 4.75375 18.7062 4.68458 18.6663C4.61542 18.6264 4.55801 18.569 4.51814 18.4998C4.48823 18.4481 4.4688 18.391 4.46097 18.3318C4.45313 18.2726 4.45703 18.2125 4.47245 18.1548C4.48787 18.0971 4.51451 18.043 4.55084 17.9956C4.58717 17.9482 4.63249 17.9085 4.6842 17.8786L9.09329 15.3331C9.1977 15.273 9.32172 15.2568 9.43809 15.288C9.55446 15.3193 9.65367 15.3954 9.71389 15.4998C9.77413 15.6042 9.79047 15.7283 9.75933 15.8448C9.7282 15.9612 9.65214 16.0606 9.54783 16.121L5.13874 18.6665C5.06983 18.7063 4.99165 18.7272 4.91208 18.7271Z" fill="#080F0F"></path><path d="M11 22.2422C10.8794 22.2422 10.7638 22.1943 10.6785 22.1091C10.5933 22.0238 10.5454 21.9082 10.5454 21.7876V16.6967C10.5454 16.5762 10.5933 16.4606 10.6785 16.3753C10.7638 16.2901 10.8794 16.2422 11 16.2422C11.1205 16.2422 11.2361 16.2901 11.3214 16.3753C11.4066 16.4606 11.4545 16.5762 11.4545 16.6967V21.7876C11.4545 21.9082 11.4066 22.0238 11.3214 22.1091C11.2361 22.1943 11.1205 22.2422 11 22.2422Z" fill="#080F0F"></path><path d="M17.0876 18.7271C17.008 18.7272 16.9298 18.7063 16.8609 18.6665L12.4518 16.121C12.3475 16.0606 12.2714 15.9612 12.2403 15.8448C12.2092 15.7283 12.2255 15.6042 12.2857 15.4998C12.346 15.3954 12.4452 15.3193 12.5615 15.288C12.6779 15.2568 12.8019 15.273 12.9063 15.3331L17.3154 17.8786C17.3671 17.9085 17.4125 17.9482 17.4488 17.9956C17.4851 18.043 17.5118 18.0971 17.5272 18.1548C17.5426 18.2125 17.5465 18.2726 17.5387 18.3318C17.5308 18.391 17.5114 18.4481 17.4815 18.4998C17.4416 18.569 17.3842 18.6264 17.315 18.6663C17.2459 18.7062 17.1674 18.7272 17.0876 18.7271Z" fill="#080F0F"></path><path d="M12.6797 14.2424C12.5998 14.2426 12.5214 14.2216 12.4522 14.1817C12.383 14.1418 12.3256 14.0844 12.2857 14.0152C12.2255 13.9107 12.2092 13.7867 12.2403 13.6702C12.2714 13.5537 12.3475 13.4544 12.4518 13.394L16.8609 10.8485C16.9126 10.8186 16.9696 10.7993 17.0288 10.7915C17.088 10.7837 17.1481 10.7877 17.2058 10.8031C17.2634 10.8186 17.3174 10.8453 17.3647 10.8817C17.4121 10.9181 17.4517 10.9634 17.4815 11.0152C17.5114 11.0669 17.5308 11.1239 17.5387 11.1831C17.5465 11.2423 17.5426 11.3025 17.5272 11.3602C17.5118 11.4179 17.4851 11.4719 17.4488 11.5193C17.4125 11.5667 17.3671 11.6065 17.3154 11.6364L12.9063 14.1818C12.8374 14.2216 12.7592 14.2425 12.6797 14.2424Z" fill="#080F0F"></path><path d="M26.0306 14.2423H22.1518C22.0313 14.2423 21.9156 14.1944 21.8304 14.1091C21.7452 14.0239 21.6973 13.9083 21.6973 13.7877V7.60591C21.6973 7.48536 21.7452 7.36975 21.8304 7.28451C21.9156 7.19926 22.0313 7.15137 22.1518 7.15137H26.0306C26.1512 7.15137 26.2668 7.19926 26.352 7.28451C26.4373 7.36975 26.4851 7.48536 26.4851 7.60591V13.7877C26.4851 13.9083 26.4373 14.0239 26.352 14.1091C26.2668 14.1944 26.1512 14.2423 26.0306 14.2423ZM22.6064 13.3332H25.5761V8.06046H22.6064V13.3332Z" fill="#080F0F"></path><path d="M26.0306 22.3635H22.1518C22.0313 22.3635 21.9156 22.3156 21.8304 22.2304C21.7452 22.1452 21.6973 22.0295 21.6973 21.909V17.0605C21.6973 16.9399 21.7452 16.8243 21.8304 16.7391C21.9156 16.6539 22.0313 16.606 22.1518 16.606H26.0306C26.1512 16.606 26.2668 16.6539 26.352 16.7391C26.4373 16.8243 26.4851 16.9399 26.4851 17.0605V21.909C26.4851 22.0295 26.4373 22.1452 26.352 22.2304C26.2668 22.3156 26.1512 22.3635 26.0306 22.3635ZM22.6064 21.4544H25.5761V17.515H22.6064V21.4544Z" fill="#080F0F"></path></svg>