<svg xmlns="http://www.w3.org/2000/svg" width="31" height="30" viewBox="0 0 31 30" fill="none"><path d="M27.939 13.0303C27.939 13.4804 28.1178 13.912 28.436 14.2303C28.7543 14.5485 29.1859 14.7273 29.636 14.7273V20.1819H15.5996C18.4098 19.7122 20.9949 18.3526 22.9742 16.3031H25.0299V13.5455C26.0761 11.6811 26.656 9.59146 26.7202 7.45459H29.636V11.3334C29.1859 11.3334 28.7543 11.5122 28.436 11.8304C28.1178 12.1487 27.939 12.5803 27.939 13.0303V13.0303Z" fill="#DD3333"></path><path d="M12.1814 11.3335V16.3032H6.63599C7.76221 16.009 8.76971 15.3733 9.52012 14.4834C10.2705 13.5936 10.727 12.4932 10.8269 11.3335H12.1814Z" fill="#DD3333"></path><path d="M25.0305 12.3301V16.3028H21.7578V14.727C22.4841 14.7146 23.1888 14.4775 23.7748 14.0483C24.3609 13.6191 24.7996 13.0188 25.0305 12.3301V12.3301Z" fill="#DD3333"></path><path d="M18.606 12.3301V16.3028H15.3333V14.727C16.0596 14.7146 16.7642 14.4775 17.3503 14.0483C17.9363 13.6191 18.375 13.0188 18.606 12.3301V12.3301Z" fill="#DD3333"></path><path d="M26.6666 20.1816V23.4544H22.4072C23.0396 23.1358 23.5888 22.6741 24.0114 22.1059C24.4339 21.5378 24.718 20.8789 24.8412 20.1816H26.6666Z" fill="#DD3333"></path><path d="M16.9694 20.1816V23.4544H12.71C13.3423 23.1358 13.8916 22.6741 14.3141 22.1059C14.7366 21.5378 15.0208 20.8789 15.1439 20.1816H16.9694Z" fill="#DD3333"></path><path d="M29.6363 20.6364H0.545366C0.424813 20.6364 0.309195 20.5885 0.223951 20.5032C0.138707 20.418 0.0908203 20.3024 0.0908203 20.1818V14.7273C0.0908203 14.6067 0.138707 14.4911 0.223951 14.4059C0.309195 14.3206 0.424813 14.2727 0.545366 14.2727C0.87473 14.2722 1.19047 14.1412 1.42336 13.9083C1.65626 13.6754 1.78731 13.3597 1.78779 13.0303C1.78731 12.7009 1.65626 12.3852 1.42336 12.1523C1.19047 11.9194 0.87473 11.7884 0.545366 11.7879C0.424813 11.7879 0.309195 11.74 0.223951 11.6547C0.138707 11.5695 0.0908203 11.4539 0.0908203 11.3333V7.45455C0.0908203 7.33399 0.138707 7.21838 0.223951 7.13314C0.309195 7.04789 0.424813 7 0.545366 7H29.6363C29.7568 7 29.8724 7.04789 29.9577 7.13314C30.0429 7.21838 30.0908 7.33399 30.0908 7.45455V11.3333C30.0908 11.4539 30.0429 11.5695 29.9577 11.6547C29.8724 11.74 29.7568 11.7879 29.6363 11.7879C29.3069 11.7884 28.9912 11.9194 28.7583 12.1523C28.5254 12.3852 28.3943 12.7009 28.3939 13.0303C28.3943 13.3597 28.5254 13.6754 28.7583 13.9083C28.9912 14.1412 29.3069 14.2722 29.6363 14.2727C29.7568 14.2727 29.8724 14.3206 29.9577 14.4059C30.0429 14.4911 30.0908 14.6067 30.0908 14.7273V20.1818C30.0908 20.3024 30.0429 20.418 29.9577 20.5032C29.8724 20.5885 29.7568 20.6364 29.6363 20.6364V20.6364ZM0.999911 19.7273H29.1817V15.1333C28.7014 15.029 28.2712 14.7634 27.9626 14.3809C27.6539 13.9984 27.4853 13.5218 27.4848 13.0303C27.4853 12.5388 27.6539 12.0622 27.9626 11.6797C28.2712 11.2972 28.7014 11.0317 29.1817 10.9273V7.90909H0.999911V10.9273C1.48023 11.0317 1.91042 11.2972 2.21908 11.6797C2.52775 12.0622 2.69634 12.5388 2.69688 13.0303C2.69634 13.5218 2.52775 13.9984 2.21908 14.3809C1.91042 14.7634 1.48023 15.029 0.999911 15.1333V19.7273Z" fill="#080F0F"></path><path d="M18.6059 16.7577H15.3332C15.2127 16.7577 15.097 16.7098 15.0118 16.6246C14.9265 16.5393 14.8787 16.4237 14.8787 16.3031V11.3335C14.8787 11.2129 14.9265 11.0973 15.0118 11.012C15.097 10.9268 15.2127 10.8789 15.3332 10.8789H18.6059C18.7265 10.8789 18.8421 10.9268 18.9273 11.012C19.0126 11.0973 19.0605 11.2129 19.0605 11.3335V16.3031C19.0605 16.4237 19.0126 16.5393 18.9273 16.6246C18.8421 16.7098 18.7265 16.7577 18.6059 16.7577ZM15.7878 15.8486H18.1514V11.788H15.7878V15.8486Z" fill="#080F0F"></path><path d="M12.1816 16.7577H5.15132C5.03077 16.7577 4.91515 16.7098 4.82991 16.6246C4.74466 16.5393 4.69678 16.4237 4.69678 16.3031V11.3335C4.69678 11.2129 4.74466 11.0973 4.82991 11.012C4.91515 10.9268 5.03077 10.8789 5.15132 10.8789H12.1816C12.3022 10.8789 12.4178 10.9268 12.503 11.012C12.5883 11.0973 12.6362 11.2129 12.6362 11.3335V16.3031C12.6362 16.4237 12.5883 16.5393 12.503 16.6246C12.4178 16.7098 12.3022 16.7577 12.1816 16.7577ZM5.60587 15.8486H11.7271V11.788H5.60587V15.8486Z" fill="#080F0F"></path><path d="M25.0305 16.7577H21.7578C21.6372 16.7577 21.5216 16.7098 21.4364 16.6246C21.3511 16.5393 21.3032 16.4237 21.3032 16.3031V11.3335C21.3032 11.2129 21.3511 11.0973 21.4364 11.012C21.5216 10.9268 21.6372 10.8789 21.7578 10.8789H25.0305C25.151 10.8789 25.2667 10.9268 25.3519 11.012C25.4372 11.0973 25.485 11.2129 25.485 11.3335V16.3031C25.485 16.4237 25.4372 16.5393 25.3519 16.6246C25.2667 16.7098 25.151 16.7577 25.0305 16.7577ZM22.2123 15.8486H24.5759V11.788H22.2123V15.8486Z" fill="#080F0F"></path><path d="M16.9694 23.9089H3.51485C3.3943 23.9089 3.27868 23.861 3.19343 23.7757C3.10819 23.6905 3.0603 23.5749 3.0603 23.4543V20.1816C3.0603 20.061 3.10819 19.9454 3.19343 19.8602C3.27868 19.7749 3.3943 19.7271 3.51485 19.7271H16.9694C17.0899 19.7271 17.2056 19.7749 17.2908 19.8602C17.3761 19.9454 17.4239 20.061 17.4239 20.1816V23.4543C17.4239 23.5749 17.3761 23.6905 17.2908 23.7757C17.2056 23.861 17.0899 23.9089 16.9694 23.9089ZM3.96939 22.9998H16.5148V20.6361H3.96939V22.9998Z" fill="#080F0F"></path><path d="M26.6667 23.9089H20.1213C20.0007 23.9089 19.8851 23.861 19.7999 23.7757C19.7146 23.6905 19.6667 23.5749 19.6667 23.4543V20.1816C19.6667 20.061 19.7146 19.9454 19.7999 19.8602C19.8851 19.7749 20.0007 19.7271 20.1213 19.7271H26.6667C26.7873 19.7271 26.9029 19.7749 26.9882 19.8602C27.0734 19.9454 27.1213 20.061 27.1213 20.1816V23.4543C27.1213 23.5749 27.0734 23.6905 26.9882 23.7757C26.9029 23.861 26.7873 23.9089 26.6667 23.9089ZM20.5758 22.9998H26.2122V20.6361H20.5758V22.9998Z" fill="#080F0F"></path></svg>