<svg width="116" height="21" viewBox="0 0 116 21" fill="none" xmlns="http://www.w3.org/2000/svg">
<path fill-rule="evenodd" clip-rule="evenodd" d="M14.7324 6.56247V5.24998C14.7324 2.29687 12.4407 0 9.49424 0H2.29171H0V11.4843V20.6718H2.29171V11.4843H6.54775L11.786 20.6718H14.4051L9.49424 11.4843H9.82163C12.4407 11.4843 14.7324 9.18746 14.7324 6.56247ZM2.29171 2.29687H9.49424C11.1312 2.29687 12.4407 3.60936 12.4407 5.24998V6.56247C12.4407 8.20309 11.1312 9.51559 9.49424 9.51559H2.29171V2.29687ZM58.7324 18.7031H48.256L57.4229 2.29687L58.7324 0H56.1133H44V2.29687H54.8038L45.3095 18.7031L44 20.9999H46.6191H57.4229L58.7324 18.7031ZM79.7324 0H65V2.29687H78.4229L79.7324 0ZM65 9.1875H79.7324L78.4229 11.4844H65V9.1875ZM79.7324 18.7031H65V21H78.4229L79.7324 18.7031ZM100.732 5.24998V6.56247C100.732 9.18746 98.4407 11.4843 95.4942 11.4843H95.1668L100.405 20.6718H97.7859L92.5478 11.4843H88.2917V20.6718H86V11.4843V0H88.2917H95.4942C98.4407 0 100.732 2.29687 100.732 5.24998ZM95.4942 2.29687H88.2917V9.51559H95.4942C97.1312 9.51559 98.4407 8.20309 98.4407 6.56247V5.24998C98.4407 3.60936 97.1312 2.29687 95.4942 2.29687ZM29.5121 6.23435L23.2917 20.9999H21L28.2025 2.95311L29.5121 0L30.4942 2.95311L37.6968 20.9999H35.4051L29.5121 6.23435ZM107 0.984372V0.328125H110.274V0.984372H108.964V4.59373H108.31V0.984372H107ZM111.256 0.328125V4.59373H111.911V0.984372L113.22 4.59373H113.548L114.857 0.984372H115.185V4.59373H115.512V0.328125H114.53L113.548 3.93749L112.238 0.328125H111.256Z" fill="#080F0F"/>
</svg>
