<svg xmlns="http://www.w3.org/2000/svg" width="30" height="30" viewBox="0 0 30 30" fill="none"><path d="M25.6364 8.05713V29.5456H7.29395C17.0388 26.7753 24.4067 18.3589 25.6364 8.05713Z" fill="#DD3333"></path><path d="M21.4548 11.545C21.4548 13.3774 20.7269 15.1348 19.4312 16.4305C18.1355 17.7262 16.3782 18.4541 14.5458 18.4541C13.3607 18.4548 12.1955 18.1504 11.1622 17.5703C10.1289 16.9902 9.26228 16.154 8.64575 15.142C9.72866 15.8038 10.9736 16.1531 12.2427 16.1511C14.0751 16.1511 15.8325 15.4232 17.1282 14.1275C18.4239 12.8318 19.1518 11.0744 19.1518 9.242C19.1538 7.97286 18.8045 6.72793 18.1427 5.64502C19.1547 6.26155 19.991 7.12816 20.5711 8.16147C21.1511 9.19479 21.4555 10.36 21.4548 11.545Z" fill="#DD3333"></path><path d="M16.4849 23.061V26.2732H6.72729V26.2126H6.7879C8.24379 26.2132 9.66459 25.7657 10.8573 24.9308C12.05 24.0959 12.9568 22.9141 13.4546 21.5459V22.455L16.4849 23.061Z" fill="#DD3333"></path><path d="M25.6364 30H3.45455C3.33399 30 3.21838 29.9521 3.13313 29.8669C3.04789 29.7816 3 29.666 3 29.5455V0.454545C3 0.333993 3.04789 0.218382 3.13313 0.133138C3.21838 0.0478942 3.33399 0 3.45455 0H25.6364C25.7569 0 25.8725 0.0478942 25.9578 0.133138C26.043 0.218382 26.0909 0.333993 26.0909 0.454545V29.5455C26.0909 29.666 26.043 29.7816 25.9578 29.8669C25.8725 29.9521 25.7569 30 25.6364 30ZM3.90909 29.0909H25.1818V0.909091H3.90909V29.0909Z" fill="#080F0F"></path><path d="M14.5453 13.9392C13.9106 13.9384 13.3022 13.686 12.8534 13.2372C12.4046 12.7884 12.1522 12.18 12.1514 11.5453C12.1522 10.9106 12.4046 10.3022 12.8534 9.85343C13.3022 9.40465 13.9106 9.15217 14.5453 9.15137C15.18 9.15217 15.7884 9.40465 16.2372 9.85343C16.686 10.3022 16.9384 10.9106 16.9392 11.5453C16.9384 12.18 16.686 12.7884 16.2372 13.2372C15.7884 13.686 15.18 13.9384 14.5453 13.9392V13.9392ZM14.5453 10.0605C14.1516 10.0609 13.7742 10.2175 13.4959 10.4959C13.2175 10.7742 13.0609 11.1516 13.0605 11.5453C13.0609 11.939 13.2175 12.3164 13.4959 12.5947C13.7742 12.8731 14.1516 13.0297 14.5453 13.0302C14.939 13.0297 15.3164 12.8731 15.5947 12.5947C15.8731 12.3164 16.0297 11.939 16.0302 11.5453C16.0297 11.1516 15.8731 10.7742 15.5947 10.4959C15.3164 10.2175 14.939 10.0609 14.5453 10.0605Z" fill="#080F0F"></path><path d="M14.5458 18.9084C14.1563 18.9086 13.7674 18.878 13.3827 18.8169C13.2637 18.7977 13.1571 18.732 13.0864 18.6343C13.0157 18.5366 12.9867 18.4148 13.0058 18.2957C13.025 18.1766 13.0906 18.07 13.1884 17.9994C13.2861 17.9287 13.4079 17.8997 13.527 17.9187C13.8639 17.9725 14.2046 17.9995 14.5458 17.9993C16.257 17.9972 17.8975 17.3165 19.1075 16.1065C20.3175 14.8965 20.9982 13.256 21.0003 11.5448C20.9982 9.83358 20.3175 8.19304 19.1075 6.98303C17.8975 5.77302 16.257 5.09233 14.5458 5.09024C12.8346 5.09233 11.194 5.77302 9.98402 6.98303C8.77401 8.19304 8.0933 9.83358 8.09122 11.5448C8.09136 12.8018 8.45847 14.0315 9.14749 15.0829C9.83651 16.1343 10.8175 16.9617 11.97 17.4636C12.0247 17.4874 12.0742 17.5218 12.1156 17.5648C12.157 17.6078 12.1895 17.6585 12.2113 17.714C12.2331 17.7696 12.2437 17.8289 12.2426 17.8886C12.2414 17.9482 12.2285 18.0071 12.2046 18.0618C12.1808 18.1165 12.1464 18.1661 12.1035 18.2075C12.0605 18.249 12.0098 18.2815 11.9542 18.3033C11.8986 18.3251 11.8393 18.3357 11.7796 18.3345C11.7199 18.3333 11.661 18.3203 11.6064 18.2963C10.2916 17.7239 9.17265 16.7801 8.38672 15.5808C7.60079 14.3814 7.18213 12.9787 7.18213 11.5448C7.18421 9.59247 7.96069 7.72071 9.34119 6.34021C10.7217 4.95972 12.5934 4.18324 14.5458 4.18115C16.4981 4.18324 18.3698 4.95972 19.7503 6.34021C21.1308 7.72071 21.9073 9.59247 21.9094 11.5448C21.9073 13.4971 21.1308 15.3689 19.7503 16.7494C18.3698 18.1299 16.4981 18.9063 14.5458 18.9084V18.9084Z" fill="#080F0F"></path><path d="M16.4851 26.7269H6.72749C6.60694 26.7269 6.49133 26.679 6.40608 26.5937C6.32084 26.5085 6.27295 26.3929 6.27295 26.2723V19.8481C6.27295 19.7275 6.32084 19.6119 6.40608 19.5267C6.49133 19.4414 6.60694 19.3935 6.72749 19.3935H9.40265L13.1523 16.0541C13.2178 15.9957 13.2988 15.9576 13.3855 15.9442C13.4722 15.9309 13.5608 15.943 13.6408 15.979C13.7208 16.0148 13.7887 16.073 13.8364 16.1465C13.884 16.2201 13.9094 16.3059 13.9093 16.3935V22.0814L16.576 22.6147C16.6787 22.6356 16.771 22.6913 16.8373 22.7725C16.9036 22.8537 16.9398 22.9554 16.9396 23.0602V26.2723C16.9396 26.3929 16.8917 26.5085 16.8065 26.5937C16.7212 26.679 16.6056 26.7269 16.4851 26.7269V26.7269ZM7.18204 25.8178H16.0305V23.4329L13.3639 22.8996C13.2611 22.8787 13.1688 22.823 13.1025 22.7418C13.0362 22.6606 13.0001 22.5589 13.0002 22.4541V17.4069L9.87901 20.1875C9.7955 20.2616 9.68768 20.3026 9.57598 20.3026H7.18204V25.8178Z" fill="#080F0F"></path><path d="M9.99997 23.9697C10.5355 23.9697 10.9697 23.5355 10.9697 23C10.9697 22.4644 10.5355 22.0303 9.99997 22.0303C9.46442 22.0303 9.03027 22.4644 9.03027 23C9.03027 23.5355 9.46442 23.9697 9.99997 23.9697Z" fill="#080F0F"></path><path d="M6.72751 4.69721C7.26306 4.69721 7.69721 4.26306 7.69721 3.72751C7.69721 3.19196 7.26306 2.75781 6.72751 2.75781C6.19196 2.75781 5.75781 3.19196 5.75781 3.72751C5.75781 4.26306 6.19196 4.69721 6.72751 4.69721Z" fill="#080F0F"></path><path d="M22.3637 4.69721C22.8993 4.69721 23.3334 4.26306 23.3334 3.72751C23.3334 3.19196 22.8993 2.75781 22.3637 2.75781C21.8282 2.75781 21.394 3.19196 21.394 3.72751C21.394 4.26306 21.8282 4.69721 22.3637 4.69721Z" fill="#080F0F"></path><path d="M6.72749 20.3031C6.60694 20.3031 6.49133 20.2552 6.40608 20.17C6.32084 20.0847 6.27295 19.9691 6.27295 19.8485V18.394C6.27295 18.2734 6.32084 18.1578 6.40608 18.0726C6.49133 17.9873 6.60694 17.9395 6.72749 17.9395C6.84805 17.9395 6.96366 17.9873 7.04891 18.0726C7.13415 18.1578 7.18204 18.2734 7.18204 18.394V19.8485C7.18204 19.9691 7.13415 20.0847 7.04891 20.17C6.96366 20.2552 6.84805 20.3031 6.72749 20.3031Z" fill="#080F0F"></path><path d="M22.3637 27.2426C22.8993 27.2426 23.3334 26.8085 23.3334 26.2729C23.3334 25.7374 22.8993 25.3032 22.3637 25.3032C21.8282 25.3032 21.394 25.7374 21.394 26.2729C21.394 26.8085 21.8282 27.2426 22.3637 27.2426Z" fill="#080F0F"></path><path d="M22.3639 23.4545H20.4245C20.304 23.4545 20.1883 23.4066 20.1031 23.3214C20.0179 23.2361 19.97 23.1205 19.97 23C19.97 22.8794 20.0179 22.7638 20.1031 22.6785C20.1883 22.5933 20.304 22.5454 20.4245 22.5454H22.3639C22.4845 22.5454 22.6001 22.5933 22.6853 22.6785C22.7706 22.7638 22.8185 22.8794 22.8185 23C22.8185 23.1205 22.7706 23.2361 22.6853 23.3214C22.6001 23.4066 22.4845 23.4545 22.3639 23.4545V23.4545Z" fill="#080F0F"></path></svg>