<svg xmlns="http://www.w3.org/2000/svg" width="30" height="30" viewBox="0 0 30 30" fill="none"><path d="M29.5505 11.1245V25.8566L26.9133 28.4938H20.5779L18.3954 27.0994H12.4656C15.3466 26.385 18.0151 24.9924 20.2487 23.0375C20.6712 23.1584 21.1085 23.2196 21.5479 23.2193C22.8021 23.2193 24.0049 22.7211 24.8917 21.8343C25.7785 20.9475 26.2767 19.7447 26.2767 18.4905C26.2782 17.4966 25.9652 16.5276 25.3825 15.7224C26.2167 13.5698 26.6432 11.2809 26.6405 8.97231C26.6405 8.81064 26.6384 8.64897 26.6344 8.4873H26.9133L29.5505 11.1245Z" fill="#DD3333"></path><path d="M26.2764 18.4905C26.2764 19.7446 25.7782 20.9474 24.8913 21.8342C24.0045 22.721 22.8017 23.2193 21.5476 23.2193C20.714 23.2195 19.8952 22.9994 19.1742 22.5814C18.4531 22.1633 17.8553 21.562 17.4414 20.8385C18.1563 21.2476 18.9658 21.4622 19.7894 21.4611C21.0436 21.4611 22.2464 20.9629 23.1332 20.0761C24.02 19.1893 24.5182 17.9865 24.5182 16.7323C24.5194 15.9087 24.3047 15.0991 23.8956 14.3843C24.6191 14.7982 25.2204 15.3959 25.6385 16.117C26.0566 16.8381 26.2767 17.6569 26.2764 18.4905V18.4905Z" fill="#DD3333"></path><path d="M13.1812 18.4905C13.1812 19.7446 12.683 20.9474 11.7961 21.8342C10.9093 22.721 9.70652 23.2193 8.45237 23.2193C7.61883 23.2195 6.80003 22.9994 6.07894 22.5814C5.35784 22.1633 4.76007 21.562 4.34619 20.8385C5.06104 21.2476 5.87059 21.4622 6.69422 21.4611C7.94838 21.4611 9.15117 20.9629 10.038 20.0761C10.9248 19.1893 11.423 17.9865 11.423 16.7323C11.4242 15.9087 11.2095 15.0991 10.8004 14.3843C11.5239 14.7982 12.1252 15.3959 12.5433 16.117C12.9614 16.8381 13.1814 17.6569 13.1812 18.4905V18.4905Z" fill="#DD3333"></path><path d="M26.9129 28.9481H20.5776C20.4916 28.9476 20.4075 28.9228 20.3351 28.8765L18.2647 27.5537H11.7402L9.6698 28.8765C9.59732 28.9228 9.51325 28.9476 9.42729 28.9481H3.09191C3.0322 28.9481 2.97307 28.9364 2.91792 28.9135C2.86278 28.8906 2.81271 28.857 2.77059 28.8147L0.133374 26.1775C0.0910586 26.1354 0.0574953 26.0853 0.0346053 26.0301C0.0117153 25.975 -4.6619e-05 25.9159 1.38863e-07 25.8562V11.1241C-4.6619e-05 11.0644 0.0117153 11.0053 0.0346053 10.9502C0.0574953 10.895 0.0910586 10.845 0.133374 10.8028L2.77059 8.16562C2.81271 8.1233 2.86278 8.08972 2.91792 8.06683C2.97307 8.04394 3.0322 8.03218 3.09191 8.03223H9.42244C9.5084 8.03273 9.59247 8.05754 9.66494 8.10378L11.7353 9.42662H18.2598L20.3302 8.10378C20.4027 8.05754 20.4867 8.03273 20.5727 8.03223H26.9081C26.9678 8.03218 27.0269 8.04394 27.0821 8.06683C27.1372 8.08972 27.1873 8.1233 27.2294 8.16562L29.8666 10.8028C29.9089 10.845 29.9425 10.895 29.9654 10.9502C29.9883 11.0053 30 11.0644 30 11.1241V25.8562C30 25.9159 29.9883 25.975 29.9654 26.0301C29.9425 26.0853 29.9089 26.1354 29.8666 26.1775L27.2294 28.8147C27.1455 28.899 27.0319 28.9469 26.9129 28.9481ZM20.7103 28.0387H26.7244L29.0955 25.6676V11.3127L26.7244 8.94161H20.7103L18.64 10.2645C18.5675 10.3107 18.4834 10.3355 18.3975 10.336H11.6074C11.5214 10.3355 11.4374 10.3107 11.3649 10.2645L9.29451 8.94161H3.28045L0.909385 11.3127V25.6676L3.28045 28.0387H9.29451L11.3649 26.7158C11.4374 26.6696 11.5214 26.6448 11.6074 26.6443H18.3975C18.4834 26.6448 18.5675 26.6696 18.64 26.7158L20.7103 28.0387Z" fill="#080F0F"></path><path d="M8.45229 23.6741C7.07804 23.6725 5.76052 23.1259 4.78878 22.1541C3.81703 21.1824 3.2704 19.8649 3.2688 18.4906C3.2704 17.1164 3.81703 15.7989 4.78878 14.8271C5.76052 13.8554 7.07804 13.3087 8.45229 13.3071C9.82655 13.3087 11.1441 13.8554 12.1158 14.8271C13.0876 15.7989 13.6342 17.1164 13.6358 18.4906C13.6342 19.8649 13.0876 21.1824 12.1158 22.1541C11.1441 23.1259 9.82655 23.6725 8.45229 23.6741V23.6741ZM8.45229 14.2165C7.31912 14.2178 6.23273 14.6685 5.43146 15.4698C4.63019 16.2711 4.17947 17.3575 4.17818 18.4906C4.17947 19.6238 4.63019 20.7102 5.43146 21.5115C6.23273 22.3127 7.31912 22.7635 8.45229 22.7647C9.58546 22.7635 10.6719 22.3127 11.4731 21.5115C12.2744 20.7102 12.7251 19.6238 12.7264 18.4906C12.7251 17.3575 12.2744 16.2711 11.4731 15.4698C10.6719 14.6685 9.58546 14.2178 8.45229 14.2165Z" fill="#080F0F"></path><path d="M8.45247 18.9452C8.38001 18.9454 8.30856 18.9282 8.24411 18.895C8.17966 18.8619 8.12408 18.8138 8.08204 18.7548C7.66427 18.173 7.40031 17.4952 7.31467 16.7841C7.22903 16.073 7.32449 15.3518 7.59219 14.6874L8.02991 13.5925C8.07479 13.4806 8.16228 13.3912 8.27312 13.3438C8.38397 13.2964 8.5091 13.2949 8.62101 13.3397C8.7329 13.3846 8.8224 13.4721 8.8698 13.5829C8.91721 13.6938 8.91865 13.8189 8.87381 13.9308L8.4361 15.0251C8.22549 15.548 8.1504 16.1155 8.21781 16.6752C8.28522 17.2348 8.49294 17.7683 8.82168 18.2262C8.85646 18.2747 8.88131 18.3296 8.89483 18.3878C8.90835 18.446 8.91027 18.5062 8.90047 18.5651C8.89067 18.624 8.86935 18.6804 8.83773 18.7311C8.80611 18.7817 8.76481 18.8256 8.7162 18.8603C8.63943 18.9157 8.54712 18.9454 8.45247 18.9452V18.9452Z" fill="#080F0F"></path><path d="M4.35628 21.3096C4.24703 21.3095 4.14147 21.2701 4.05896 21.1985C3.97644 21.1269 3.92251 21.0279 3.90705 20.9198C3.89848 20.8607 3.90163 20.8005 3.91635 20.7427C3.93106 20.6848 3.95704 20.6304 3.9928 20.5826C4.02855 20.5348 4.07339 20.4945 4.12473 20.464C4.17608 20.4336 4.23292 20.4135 4.29202 20.4051L5.45847 20.2365C6.01666 20.1576 6.54583 19.9389 6.99683 19.6007C7.44783 19.2625 7.80601 18.8157 8.03808 18.302C8.08815 18.1922 8.17975 18.1068 8.29273 18.0645C8.40572 18.0223 8.53088 18.0265 8.64071 18.0764C8.75047 18.1265 8.83587 18.2181 8.87815 18.3311C8.92044 18.4441 8.91615 18.5692 8.86624 18.6791C8.57096 19.3316 8.11568 19.899 7.54264 20.3286C6.9696 20.7583 6.29733 21.0363 5.5882 21.1368L4.42176 21.3048C4.40011 21.3082 4.37821 21.3098 4.35628 21.3096V21.3096Z" fill="#080F0F"></path><path d="M12.5478 21.3093C12.4791 21.3094 12.4112 21.2939 12.3493 21.2638C12.2874 21.2338 12.2332 21.1901 12.1907 21.1359L11.4632 20.2096C11.1159 19.7656 10.6619 19.4166 10.1434 19.1952C9.625 18.9738 9.05899 18.8871 8.49804 18.9431C8.37802 18.9546 8.25834 18.9179 8.16534 18.8412C8.07234 18.7645 8.01364 18.6539 8.00213 18.5339C7.99636 18.4745 8.00235 18.4145 8.01976 18.3573C8.03717 18.3002 8.06565 18.2471 8.10359 18.201C8.14154 18.1549 8.1882 18.1167 8.2409 18.0886C8.2936 18.0605 8.35131 18.0431 8.41075 18.0373C9.12343 17.9667 9.84242 18.0772 10.501 18.3586C11.1596 18.64 11.7364 19.0831 12.178 19.647L12.9055 20.5733C12.9425 20.6202 12.9699 20.6739 12.9861 20.7314C13.0024 20.7888 13.0071 20.8489 13.0001 20.9082C12.993 20.9675 12.9743 21.0249 12.9451 21.0769C12.9159 21.129 12.8767 21.1748 12.8297 21.2117C12.7496 21.2753 12.6502 21.3097 12.5478 21.3093V21.3093Z" fill="#080F0F"></path><path d="M21.5475 23.6741C20.1733 23.6725 18.8557 23.1259 17.884 22.1541C16.9122 21.1824 16.3656 19.8649 16.364 18.4906C16.3656 17.1164 16.9122 15.7989 17.884 14.8271C18.8557 13.8554 20.1733 13.3087 21.5475 13.3071C22.9218 13.3087 24.2393 13.8554 25.211 14.8271C26.1828 15.7989 26.7294 17.1164 26.731 18.4906C26.7294 19.8649 26.1828 21.1824 25.211 22.1541C24.2393 23.1259 22.9218 23.6725 21.5475 23.6741V23.6741ZM21.5475 14.2165C20.4143 14.2178 19.3279 14.6685 18.5267 15.4698C17.7254 16.2711 17.2747 17.3575 17.2734 18.4906C17.2747 19.6238 17.7254 20.7102 18.5267 21.5115C19.3279 22.3127 20.4143 22.7635 21.5475 22.7647C22.6807 22.7635 23.7671 22.3127 24.5683 21.5115C25.3696 20.7102 25.8203 19.6238 25.8216 18.4906C25.8203 17.3575 25.3696 16.2711 24.5683 15.4698C23.7671 14.6685 22.6807 14.2178 21.5475 14.2165Z" fill="#080F0F"></path><path d="M21.5477 18.9452C21.4752 18.9454 21.4038 18.9282 21.3393 18.895C21.2749 18.8619 21.2193 18.8138 21.1773 18.7548C20.7595 18.173 20.4955 17.4952 20.4099 16.7841C20.3242 16.073 20.4197 15.3518 20.6874 14.6874L21.1251 13.5925C21.17 13.4806 21.2575 13.3912 21.3683 13.3438C21.4792 13.2964 21.6043 13.2949 21.7162 13.3397C21.8281 13.3846 21.9176 13.4721 21.965 13.5829C22.0124 13.6938 22.0139 13.8189 21.969 13.9308L21.5313 15.0251C21.3207 15.548 21.2456 16.1155 21.313 16.6752C21.3804 17.2348 21.5882 17.7683 21.9169 18.2262C21.9517 18.2747 21.9765 18.3296 21.99 18.3878C22.0036 18.446 22.0055 18.5062 21.9957 18.5651C21.9859 18.624 21.9646 18.6804 21.9329 18.7311C21.9013 18.7817 21.86 18.8256 21.8114 18.8603C21.7346 18.9157 21.6423 18.9454 21.5477 18.9452V18.9452Z" fill="#080F0F"></path><path d="M17.4515 21.3096C17.3422 21.3095 17.2367 21.2701 17.1542 21.1985C17.0717 21.1269 17.0177 21.0279 17.0023 20.9198C16.9937 20.8607 16.9968 20.8005 17.0116 20.7427C17.0263 20.6848 17.0523 20.6304 17.088 20.5826C17.1238 20.5348 17.1686 20.4945 17.2199 20.464C17.2713 20.4336 17.3281 20.4135 17.3872 20.4051L18.5537 20.2365C19.1119 20.1576 19.641 19.9389 20.092 19.6007C20.543 19.2625 20.9012 18.8157 21.1333 18.302C21.1834 18.1922 21.275 18.1068 21.3879 18.0645C21.5009 18.0223 21.6261 18.0265 21.7359 18.0764C21.8457 18.1265 21.9311 18.2181 21.9734 18.3311C22.0157 18.4441 22.0114 18.5692 21.9615 18.6791C21.6662 19.3316 21.2109 19.899 20.6379 20.3286C20.0648 20.7583 19.3925 21.0363 18.6834 21.1368L17.517 21.3048C17.4953 21.3082 17.4734 21.3098 17.4515 21.3096V21.3096Z" fill="#080F0F"></path><path d="M25.6431 21.3093C25.5743 21.3094 25.5064 21.2939 25.4445 21.2638C25.3826 21.2338 25.3284 21.1901 25.286 21.1359L24.5585 20.2096C24.2111 19.7656 23.7571 19.4166 23.2386 19.1952C22.7202 18.9738 22.1542 18.8871 21.5933 18.9431C21.4732 18.9546 21.3536 18.9179 21.2606 18.8412C21.1676 18.7645 21.1089 18.6539 21.0973 18.5339C21.0916 18.4745 21.0976 18.4145 21.115 18.3573C21.1324 18.3002 21.1609 18.2471 21.1988 18.201C21.2368 18.1549 21.2834 18.1167 21.3361 18.0886C21.3888 18.0605 21.4465 18.0431 21.506 18.0373C22.2186 17.9667 22.9376 18.0772 23.5962 18.3586C24.2548 18.64 24.8316 19.0831 25.2732 19.647L26.0007 20.5733C26.0377 20.6202 26.0651 20.6739 26.0814 20.7314C26.0976 20.7888 26.1023 20.8489 26.0953 20.9082C26.0882 20.9675 26.0696 21.0249 26.0403 21.0769C26.0111 21.129 25.9719 21.1748 25.925 21.2117C25.8448 21.2753 25.7454 21.3097 25.6431 21.3093V21.3093Z" fill="#080F0F"></path><path d="M14.9999 10.3364C14.8793 10.3364 14.7637 10.2884 14.6784 10.2032C14.5931 10.1179 14.5452 10.0023 14.5452 9.88166V7.57789C14.5446 7.02336 14.324 6.49174 13.9319 6.09963C13.5398 5.70752 13.0082 5.48694 12.4536 5.4863H9.42236C8.62675 5.48534 7.864 5.16886 7.30142 4.60628C6.73884 4.0437 6.42235 3.28094 6.42139 2.48533V1.45469C6.42139 1.3341 6.4693 1.21845 6.55457 1.13318C6.63984 1.04791 6.75549 1 6.87608 1C6.99667 1 7.11232 1.04791 7.19759 1.13318C7.28286 1.21845 7.33077 1.3341 7.33077 1.45469V2.48533C7.33141 3.03986 7.55198 3.57147 7.94409 3.96358C8.3362 4.35569 8.86783 4.57627 9.42236 4.57691H12.4536C13.2493 4.57788 14.012 4.89435 14.5746 5.45693C15.1372 6.01952 15.4536 6.78227 15.4546 7.57789V9.88166C15.4546 10.0023 15.4067 10.1179 15.3214 10.2032C15.2362 10.2884 15.1205 10.3364 14.9999 10.3364V10.3364Z" fill="#080F0F"></path></svg>