<?xml version="1.0" encoding="UTF-8"?>
<!DOCTYPE svg PUBLIC "-//W3C//DTD SVG 1.1//EN" "http://www.w3.org/Graphics/SVG/1.1/DTD/svg11.dtd">
<svg xmlns="http://www.w3.org/2000/svg" version="1.1" width="500px" height="500px" style="shape-rendering:geometricPrecision; text-rendering:geometricPrecision; image-rendering:optimizeQuality; fill-rule:evenodd; clip-rule:evenodd" xmlns:xlink="http://www.w3.org/1999/xlink">
<g><path style="opacity:0.488" fill="#ff9898" d="M 184.5,54.5 C 183.5,54.5 182.5,54.5 181.5,54.5C 181.182,71.577 181.515,88.577 182.5,105.5C 180.514,88.5322 179.847,71.1989 180.5,53.5C 182.099,53.2322 183.432,53.5655 184.5,54.5 Z"/></g>
<g><path style="opacity:0.999" fill="#ff3e39" d="M 184.5,54.5 C 204.007,59.9138 220.673,69.9138 234.5,84.5C 234.631,85.2389 234.464,85.9056 234,86.5C 233.329,85.7476 232.496,85.4142 231.5,85.5C 222.613,78.6371 212.946,72.9704 202.5,68.5C 202.44,67.9569 202.107,67.6236 201.5,67.5C 201.159,85.1861 200.159,102.519 198.5,119.5C 195.833,117.5 193.5,115.167 191.5,112.5C 191.027,111.094 190.027,110.427 188.5,110.5C 186.46,108.823 184.46,107.156 182.5,105.5C 181.515,88.577 181.182,71.577 181.5,54.5C 182.5,54.5 183.5,54.5 184.5,54.5 Z"/></g>
<g><path style="opacity:0.996" fill="#ff5247" d="M 264.5,88.5 C 263.833,88.1667 263.167,87.8333 262.5,87.5C 277.591,69.781 296.591,58.4477 319.5,53.5C 319.667,70.5033 319.5,87.5033 319,104.5C 311.711,109.788 305.044,115.788 299,122.5C 297.68,104.65 297.013,86.6502 297,68.5C 285.084,73.5348 274.251,80.2015 264.5,88.5 Z"/></g>
<g><path style="opacity:0.666" fill="#ff7776" d="M 202.5,68.5 C 201.668,86.3287 201.168,104.329 201,122.5C 199.955,121.627 199.122,120.627 198.5,119.5C 200.159,102.519 201.159,85.1861 201.5,67.5C 202.107,67.6236 202.44,67.9569 202.5,68.5 Z"/></g>
<g><path style="opacity:0.875" fill="#ff9890" d="M 234.5,84.5 C 240.306,89.6364 244.973,95.6364 248.5,102.5C 243.167,96.5 237.5,90.8333 231.5,85.5C 232.496,85.4142 233.329,85.7476 234,86.5C 234.464,85.9056 234.631,85.2389 234.5,84.5 Z"/></g>
<g><path style="opacity:0.835" fill="#ff988f" d="M 262.5,87.5 C 263.167,87.8333 263.833,88.1667 264.5,88.5C 259.837,93.3308 255.337,98.3308 251,103.5C 253.367,97.2712 257.2,91.9379 262.5,87.5 Z"/></g>
<g><path style="opacity:0.998" fill="#ff443d" d="M 194.5,123.5 C 194.672,124.492 194.338,125.158 193.5,125.5C 150.179,95.5964 106.846,95.4298 63.5,125C 23.7069,160.342 13.5402,202.842 33,252.5C 36.2593,258.692 39.7593,264.692 43.5,270.5C 43.1583,271.338 42.4916,271.672 41.5,271.5C 14.0376,241.312 5.53755,206.312 16,166.5C 31.0421,123.896 60.8754,99.0625 105.5,92C 140.268,88.752 169.935,99.252 194.5,123.5 Z"/></g>
<g><path style="opacity:0.999" fill="#ff4941" d="M 460.5,268.5 C 460.443,267.391 460.11,266.391 459.5,265.5C 484.022,222.192 481.522,180.526 452,140.5C 445.571,133.565 438.738,127.232 431.5,121.5C 431.027,120.094 430.027,119.427 428.5,119.5C 389.727,97.1696 351.06,97.503 312.5,120.5C 311.761,120.631 311.094,120.464 310.5,120C 312.041,118.629 313.375,117.129 314.5,115.5C 330.229,101.966 348.562,94.1331 369.5,92C 422.212,89.0954 459.378,111.595 481,159.5C 494.826,199.896 487.993,236.229 460.5,268.5 Z"/></g>
<g><path style="opacity:0.008" fill="#fef8f7" d="M 248.5,102.5 C 249.833,103.167 249.833,103.167 248.5,102.5 Z"/></g>
<g><path style="opacity:0.999" fill="#ff5e52" d="M 232.5,119.5 C 230.393,120.468 228.059,120.802 225.5,120.5C 215.585,116.999 213.252,110.666 218.5,101.5C 220.902,104.626 223.069,107.96 225,111.5C 227.705,114.036 230.205,116.703 232.5,119.5 Z"/></g>
<g><path style="opacity:0.998" fill="#ff5d52" d="M 266.5,121.5 C 265.508,121.672 264.842,121.338 264.5,120.5C 267.75,118.757 270.584,116.423 273,113.5C 275.667,109.5 278.333,105.5 281,101.5C 286.3,115.073 281.467,121.74 266.5,121.5 Z"/></g>
<g><path style="opacity:0.706" fill="#ffaaa6" d="M 188.5,110.5 C 190.027,110.427 191.027,111.094 191.5,112.5C 189.973,112.573 188.973,111.906 188.5,110.5 Z"/></g>
<g><path style="opacity:0.925" fill="#ff9790" d="M 232.5,119.5 C 234.196,119.685 235.529,120.519 236.5,122C 232.674,122.064 229.008,121.564 225.5,120.5C 228.059,120.802 230.393,120.468 232.5,119.5 Z"/></g>
<g><path style="opacity:0.498" fill="#ffa7a3" d="M 428.5,119.5 C 430.027,119.427 431.027,120.094 431.5,121.5C 429.973,121.573 428.973,120.906 428.5,119.5 Z"/></g>
<g><path style="opacity:0.192" fill="#ffe0e0" d="M 264.5,120.5 C 264.842,121.338 265.508,121.672 266.5,121.5C 265.614,122.776 264.614,122.776 263.5,121.5C 263.624,120.893 263.957,120.56 264.5,120.5 Z"/></g>
<g><path style="opacity:0.951" fill="#ff7b70" d="M 314.5,115.5 C 313.375,117.129 312.041,118.629 310.5,120C 311.094,120.464 311.761,120.631 312.5,120.5C 309.81,123.185 306.81,125.518 303.5,127.5C 302.833,127.5 302.5,127.167 302.5,126.5C 305.895,122.102 309.895,118.436 314.5,115.5 Z"/></g>
<g><path style="opacity:0.945" fill="#ff8d84" d="M 194.5,123.5 C 196.701,126.021 199.034,128.521 201.5,131C 200.833,131.667 200.167,131.667 199.5,131C 197.604,128.932 195.604,127.099 193.5,125.5C 194.338,125.158 194.672,124.492 194.5,123.5 Z"/></g>
<g><path style="opacity:0.047" fill="#ffd5d4" d="M 302.5,126.5 C 302.5,127.167 302.833,127.5 303.5,127.5C 302.438,129.757 300.772,130.923 298.5,131C 299.328,129.008 300.661,127.508 302.5,126.5 Z"/></g>
<g><path style="opacity:0.999" fill="#ff3a37" d="M 108.5,146.5 C 114.833,146.5 121.167,146.5 127.5,146.5C 127.5,156.833 127.5,167.167 127.5,177.5C 124.522,180.813 121.522,184.147 118.5,187.5C 114.813,184.647 111.647,181.314 109,177.5C 108.5,167.172 108.334,156.839 108.5,146.5 Z"/></g>
<g><path style="opacity:0.207" fill="#ffc3c2" d="M 108.5,146.5 C 114.979,145.509 121.646,145.176 128.5,145.5C 128.828,156.346 128.494,167.013 127.5,177.5C 127.5,167.167 127.5,156.833 127.5,146.5C 121.167,146.5 114.833,146.5 108.5,146.5 Z"/></g>
<g><path style="opacity:0.999" fill="#ff453e" d="M 368.5,153.5 C 369.906,153.027 370.573,152.027 370.5,150.5C 376.989,144.485 383.989,143.985 391.5,149C 399.022,159.236 397.356,167.57 386.5,174C 373.005,175.834 366.505,170.001 367,156.5C 367.513,155.473 368.013,154.473 368.5,153.5 Z"/></g>
<g><path style="opacity:0.267" fill="#ffc5c3" d="M 370.5,150.5 C 370.573,152.027 369.906,153.027 368.5,153.5C 368.427,151.973 369.094,150.973 370.5,150.5 Z"/></g>
<g><path style="opacity:0.999" fill="#ff453e" d="M 331.5,190.5 C 332.906,190.027 333.573,189.027 333.5,187.5C 335.027,187.573 336.027,186.906 336.5,185.5C 343.867,181.964 350.367,183.297 356,189.5C 361.251,204.913 355.751,212.413 339.5,212C 329.413,207.218 326.746,200.051 331.5,190.5 Z"/></g>
<g><path style="opacity:0.999" fill="#ff453e" d="M 428.5,186.5 C 428.427,188.027 429.094,189.027 430.5,189.5C 436.148,199.304 433.815,206.804 423.5,212C 410,213.167 403.833,207 405,193.5C 410.435,183.107 418.268,180.773 428.5,186.5 Z"/></g>
<g><path style="opacity:0.608" fill="#ffb1ae" d="M 336.5,185.5 C 336.027,186.906 335.027,187.573 333.5,187.5C 333.973,186.094 334.973,185.427 336.5,185.5 Z"/></g>
<g><path style="opacity:0.243" fill="#ffcccc" d="M 97.5,188.5 C 87.1667,188.5 76.8333,188.5 66.5,188.5C 66.5,194.833 66.5,201.167 66.5,207.5C 65.5093,201.021 65.176,194.354 65.5,187.5C 76.3464,187.172 87.0131,187.506 97.5,188.5 Z"/></g>
<g><path style="opacity:0.671" fill="#ffaca8" d="M 428.5,186.5 C 429.906,186.973 430.573,187.973 430.5,189.5C 429.094,189.027 428.427,188.027 428.5,186.5 Z"/></g>
<g><path style="opacity:1" fill="#ff3a37" d="M 97.5,188.5 C 100.192,190.862 102.859,193.196 105.5,195.5C 105.557,196.609 105.89,197.609 106.5,198.5C 104,201.832 101,204.666 97.5,207C 87.172,207.5 76.8387,207.666 66.5,207.5C 66.5,201.167 66.5,194.833 66.5,188.5C 76.8333,188.5 87.1667,188.5 97.5,188.5 Z"/></g>
<g><path style="opacity:1" fill="#ff3232" d="M 139.5,188.5 C 149.5,188.5 159.5,188.5 169.5,188.5C 169.5,194.5 169.5,200.5 169.5,206.5C 158.782,206.787 148.115,206.454 137.5,205.5C 136.5,205.167 135.833,204.5 135.5,203.5C 135.027,202.094 134.027,201.427 132.5,201.5C 131.5,201.167 130.833,200.5 130.5,199.5C 130.5,198.5 130.5,197.5 130.5,196.5C 130.5,195.833 130.833,195.5 131.5,195.5C 134.764,193.906 137.431,191.573 139.5,188.5 Z"/></g>
<g><path style="opacity:0.698" fill="#ffa7a2" d="M 333.5,187.5 C 333.573,189.027 332.906,190.027 331.5,190.5C 331.427,188.973 332.094,187.973 333.5,187.5 Z"/></g>
<g><path style="opacity:0.843" fill="#ff887f" d="M 139.5,188.5 C 137.431,191.573 134.764,193.906 131.5,195.5C 133.569,192.427 136.236,190.094 139.5,188.5 Z"/></g>
<g><path style="opacity:0.467" fill="#ffa49f" d="M 105.5,195.5 C 107.382,196.221 107.715,197.221 106.5,198.5C 105.89,197.609 105.557,196.609 105.5,195.5 Z"/></g>
<g><path style="opacity:0.925" fill="#ffa198" d="M 130.5,196.5 C 130.5,197.5 130.5,198.5 130.5,199.5C 128.015,198.26 128.015,197.26 130.5,196.5 Z"/></g>
<g><path style="opacity:0.639" fill="#ffb1ad" d="M 132.5,201.5 C 134.027,201.427 135.027,202.094 135.5,203.5C 133.973,203.573 132.973,202.906 132.5,201.5 Z"/></g>
<g><path style="opacity:0.732" fill="#ff8784" d="M 139.5,188.5 C 149.653,187.506 159.986,187.172 170.5,187.5C 170.5,194.167 170.5,200.833 170.5,207.5C 159.828,207.667 149.161,207.5 138.5,207C 137.944,206.617 137.611,206.117 137.5,205.5C 148.115,206.454 158.782,206.787 169.5,206.5C 169.5,200.5 169.5,194.5 169.5,188.5C 159.5,188.5 149.5,188.5 139.5,188.5 Z"/></g>
<g><path style="opacity:0.999" fill="#ff3533" d="M 119.5,209.5 C 119.738,211.404 120.738,212.738 122.5,213.5C 124.5,214.833 126.167,216.5 127.5,218.5C 127.5,228.833 127.5,239.167 127.5,249.5C 121.5,249.5 115.5,249.5 109.5,249.5C 109.334,239.161 109.5,228.828 110,218.5C 111.039,217.756 111.539,216.756 111.5,215.5C 113.294,213.203 115.294,211.037 117.5,209C 118.437,208.308 119.103,208.475 119.5,209.5 Z"/></g>
<g><path style="opacity:0.725" fill="#ffafab" d="M 119.5,209.5 C 121.262,210.262 122.262,211.596 122.5,213.5C 120.738,212.738 119.738,211.404 119.5,209.5 Z"/></g>
<g><path style="opacity:0.775" fill="#ff6764" d="M 111.5,215.5 C 111.539,216.756 111.039,217.756 110,218.5C 109.5,228.828 109.334,239.161 109.5,249.5C 109.167,249.5 108.833,249.5 108.5,249.5C 108.333,238.828 108.5,228.161 109,217.5C 109.708,216.619 110.542,215.953 111.5,215.5 Z"/></g>
<g><path style="opacity:0.21" fill="#ffd0d0" d="M 127.5,218.5 C 128.494,228.987 128.828,239.654 128.5,250.5C 121.646,250.824 114.979,250.491 108.5,249.5C 108.833,249.5 109.167,249.5 109.5,249.5C 115.5,249.5 121.5,249.5 127.5,249.5C 127.5,239.167 127.5,228.833 127.5,218.5 Z"/></g>
<g><path style="opacity:0.999" fill="#ff473f" d="M 370.5,226.5 C 371.833,225.833 372.833,224.833 373.5,223.5C 385.756,218.13 393.423,222.13 396.5,235.5C 393.618,248.606 385.952,252.773 373.5,248C 365.702,241.588 364.702,234.422 370.5,226.5 Z"/></g>
<g><path style="opacity:0.514" fill="#ffb0ae" d="M 373.5,223.5 C 372.833,224.833 371.833,225.833 370.5,226.5C 370.5,224.5 371.5,223.5 373.5,223.5 Z"/></g>
<g><path style="opacity:0.086" fill="#fee5e4" d="M 46.5,253.5 C 45.8333,252.167 45.8333,252.167 46.5,253.5 Z"/></g>
<g><path style="opacity:0.933" fill="#ffa7a1" d="M 444.5,264.5 C 444.672,263.508 444.338,262.842 443.5,262.5C 446.828,259.338 449.994,256.005 453,252.5C 452.956,254.279 452.289,255.945 451,257.5C 448.6,259.729 446.433,262.063 444.5,264.5 Z"/></g>
<g><path style="opacity:0.816" fill="#ff776f" d="M 443.5,262.5 C 444.338,262.842 444.672,263.508 444.5,264.5C 443.167,265.5 441.833,266.5 440.5,267.5C 440.158,266.662 439.492,266.328 438.5,266.5C 439.579,264.457 441.246,263.124 443.5,262.5 Z"/></g>
<g><path style="opacity:1" fill="#ff9086" d="M 46.5,253.5 C 51.8739,258.177 57.2072,262.843 62.5,267.5C 60.3023,267.409 59.9689,268.075 61.5,269.5C 55.1178,265.452 50.1178,260.118 46.5,253.5 Z"/></g>
<g><path style="opacity:0.999" fill="#ff4d44" d="M 438.5,266.5 C 439.492,266.328 440.158,266.662 440.5,267.5C 427.459,280.357 411.792,288.524 393.5,292C 375.861,294.779 358.527,293.445 341.5,288C 323.539,280.507 304.872,277.174 285.5,278C 273.816,279.67 264.482,285.17 257.5,294.5C 256.662,294.158 256.328,293.492 256.5,292.5C 262.157,278.701 272.491,270.534 287.5,268C 296.826,266.11 306.159,266.11 315.5,268C 331.041,271.18 346.375,275.18 361.5,280C 389.079,285.849 414.745,281.349 438.5,266.5 Z"/></g>
<g><path style="opacity:0.999" fill="#ff4c43" d="M 243.5,293.5 C 243.672,294.492 243.338,295.158 242.5,295.5C 233.475,282.74 220.975,276.74 205,277.5C 187.59,278.727 170.757,282.56 154.5,289C 122.276,298.494 92.609,293.494 65.5,274C 63.9586,272.629 62.6253,271.129 61.5,269.5C 59.9689,268.075 60.3023,267.409 62.5,267.5C 87.4765,282.291 114.143,286.124 142.5,279C 160.755,272.228 179.588,268.061 199,266.5C 214.417,266.188 227.417,271.522 238,282.5C 240.372,285.91 242.205,289.577 243.5,293.5 Z"/></g>
<g><path style="opacity:0.941" fill="#ff776c" d="M 459.5,265.5 C 460.11,266.391 460.443,267.391 460.5,268.5C 458.5,271.167 456.167,273.5 453.5,275.5C 452.833,275.5 452.5,275.167 452.5,274.5C 454.603,271.28 456.936,268.28 459.5,265.5 Z"/></g>
<g><path style="opacity:0.835" fill="#ff9a90" d="M 43.5,270.5 C 46.2678,273.771 49.2678,276.938 52.5,280C 47.9192,278.614 44.2525,275.78 41.5,271.5C 42.4916,271.672 43.1583,271.338 43.5,270.5 Z"/></g>
<g><path style="opacity:0.125" fill="#ffcfcd" d="M 452.5,274.5 C 452.5,275.167 452.833,275.5 453.5,275.5C 452.121,278.073 450.121,279.573 447.5,280C 449.3,278.188 450.967,276.355 452.5,274.5 Z"/></g>
<g><path style="opacity:0.969" fill="#ff9a93" d="M 256.5,292.5 C 256.328,293.492 256.662,294.158 257.5,294.5C 255.729,298.379 254.229,302.379 253,306.5C 252.717,301.402 253.883,296.735 256.5,292.5 Z"/></g>
<g><path style="opacity:0.631" fill="#ffaca9" d="M 243.5,293.5 C 245.421,296.856 246.254,300.523 246,304.5C 244.729,301.516 243.562,298.516 242.5,295.5C 243.338,295.158 243.672,294.492 243.5,293.5 Z"/></g>
<g><path style="opacity:0.998" fill="#ff463e" d="M 95.5,341.5 C 104.839,341.334 114.173,341.5 123.5,342C 126.039,344.37 128.372,346.87 130.5,349.5C 130.427,351.027 131.094,352.027 132.5,352.5C 136.185,363.15 132.685,366.817 122,363.5C 122.389,359.119 120.889,355.619 117.5,353C 111.5,352.333 105.5,352.333 99.5,353C 98,354.5 96.5,356 95,357.5C 94.3333,365.5 94.3333,373.5 95,381.5C 96.1667,382.667 97.3333,383.833 98.5,385C 106.159,385.5 113.826,385.666 121.5,385.5C 121.5,384.167 121.5,382.833 121.5,381.5C 115.158,381.666 108.825,381.5 102.5,381C 101.167,377.667 101.167,374.333 102.5,371C 112.5,370.333 122.5,370.333 132.5,371C 133.648,379.088 133.815,387.254 133,395.5C 126.74,396.812 120.24,397.478 113.5,397.5C 107.167,397.333 100.833,397.167 94.5,397C 89.9093,392.748 85.7427,388.248 82,383.5C 81.3333,374.167 81.3333,364.833 82,355.5C 82.2321,354.263 82.7321,353.263 83.5,352.5C 88.1053,349.564 92.1053,345.898 95.5,341.5 Z"/></g>
<g><path style="opacity:0.998" fill="#ff3e39" d="M 178.5,379.5 C 169.014,378.506 159.348,378.173 149.5,378.5C 149.5,384.5 149.5,390.5 149.5,396.5C 148.036,397.16 146.369,397.493 144.5,397.5C 142.359,397.387 140.525,396.72 139,395.5C 138.333,381.833 138.333,368.167 139,354.5C 142.465,350.033 146.298,345.867 150.5,342C 159.833,341.333 169.167,341.333 178.5,342C 182,345.5 185.5,349 189,352.5C 189.5,367.496 189.667,382.496 189.5,397.5C 185.894,397.789 182.394,397.456 179,396.5C 178.501,390.843 178.334,385.176 178.5,379.5 Z M 178.5,368.5 C 169.167,368.5 159.833,368.5 150.5,368.5C 150.5,364.833 150.5,361.167 150.5,357.5C 152.296,356.207 153.963,354.707 155.5,353C 161.5,352.333 167.5,352.333 173.5,353C 178.154,357.047 179.821,362.214 178.5,368.5 Z"/></g>
<g><path style="opacity:0.998" fill="#ff433d" d="M 236.5,396.5 C 237.148,382.791 236.481,369.458 234.5,356.5C 231.174,353.008 227.008,351.675 222,352.5C 216.277,351.427 211.61,353.093 208,357.5C 207.667,370.5 207.333,383.5 207,396.5C 203.591,397.622 200.091,397.789 196.5,397C 195.344,382.908 195.177,368.742 196,354.5C 199.465,350.033 203.298,345.867 207.5,342C 216.833,341.333 226.167,341.333 235.5,342C 237.35,344.018 239.35,345.851 241.5,347.5C 242.998,345.171 244.998,343.337 247.5,342C 256.167,341.333 264.833,341.333 273.5,342C 277.369,345.534 280.869,349.367 284,353.5C 284.5,368.163 284.667,382.83 284.5,397.5C 280.894,397.789 277.394,397.456 274,396.5C 273.667,383.5 273.333,370.5 273,357.5C 269.747,353.139 265.414,351.473 260,352.5C 255.222,351.735 251.222,353.069 248,356.5C 247.667,369.833 247.333,383.167 247,396.5C 243.399,397.82 239.899,397.82 236.5,396.5 Z"/></g>
<g><path style="opacity:0.998" fill="#ff463e" d="M 292.5,341.5 C 296.167,341.5 299.833,341.5 303.5,341.5C 303.667,359.836 303.5,378.17 303,396.5C 299.066,397.821 295.233,397.821 291.5,396.5C 291.18,378.09 291.514,359.757 292.5,341.5 Z"/></g>
<g><path style="opacity:0.997" fill="#ff4a41" d="M 346.5,356.5 C 346.027,355.094 345.027,354.427 343.5,354.5C 342.711,354.217 342.044,353.717 341.5,353C 334.508,352.5 327.508,352.334 320.5,352.5C 320.667,367.17 320.5,381.837 320,396.5C 318.262,397.127 316.429,397.46 314.5,397.5C 312.359,397.387 310.525,396.72 309,395.5C 308.028,377.742 308.361,360.076 310,342.5C 322.424,341.345 334.924,341.179 347.5,342C 351.333,345.833 355.167,349.667 359,353.5C 360.632,367.74 360.965,382.073 360,396.5C 356.591,397.622 353.091,397.789 349.5,397C 348.677,384.242 348.177,371.409 348,358.5C 347.283,357.956 346.783,357.289 346.5,356.5 Z"/></g>
<g><path style="opacity:0.997" fill="#ff463e" d="M 379.5,341.5 C 388.839,341.334 398.173,341.5 407.5,342C 410.039,344.37 412.372,346.87 414.5,349.5C 414.427,351.027 415.094,352.027 416.5,352.5C 420.567,362.964 417.233,366.797 406.5,364C 406.446,359.562 404.78,355.895 401.5,353C 395.5,352.333 389.5,352.333 383.5,353C 382,354.5 380.5,356 379,357.5C 378.333,365.5 378.333,373.5 379,381.5C 380.167,382.667 381.333,383.833 382.5,385C 390.159,385.5 397.826,385.666 405.5,385.5C 405.5,384.167 405.5,382.833 405.5,381.5C 399.158,381.666 392.825,381.5 386.5,381C 385.167,377.667 385.167,374.333 386.5,371C 396.744,370.181 406.91,370.348 417,371.5C 417.803,379.882 417.636,388.215 416.5,396.5C 403.846,397.666 391.18,397.833 378.5,397C 375.629,394.297 372.962,391.464 370.5,388.5C 370.027,387.094 369.027,386.427 367.5,386.5C 367.013,385.527 366.513,384.527 366,383.5C 365.333,374.167 365.333,364.833 366,355.5C 366.232,354.263 366.732,353.263 367.5,352.5C 372.105,349.564 376.105,345.898 379.5,341.5 Z"/></g>
<g><path style="opacity:0.411" fill="#ffaaa9" d="M 292.5,341.5 C 291.514,359.757 291.18,378.09 291.5,396.5C 290.834,387.506 290.5,378.34 290.5,369C 290.502,359.475 291.168,350.308 292.5,341.5 Z"/></g>
<g><path style="opacity:0.918" fill="#ff7c70" d="M 95.5,341.5 C 92.1053,345.898 88.1053,349.564 83.5,352.5C 86.8947,348.102 90.8947,344.436 95.5,341.5 Z"/></g>
<g><path style="opacity:0.914" fill="#ff7c70" d="M 379.5,341.5 C 376.105,345.898 372.105,349.564 367.5,352.5C 370.895,348.102 374.895,344.436 379.5,341.5 Z"/></g>
<g><path style="opacity:0.471" fill="#ffaaa6" d="M 130.5,349.5 C 131.906,349.973 132.573,350.973 132.5,352.5C 131.094,352.027 130.427,351.027 130.5,349.5 Z"/></g>
<g><path style="opacity:0.533" fill="#ffa4a0" d="M 414.5,349.5 C 415.906,349.973 416.573,350.973 416.5,352.5C 415.094,352.027 414.427,351.027 414.5,349.5 Z"/></g>
<g><path style="opacity:0.706" fill="#ffa7a2" d="M 343.5,354.5 C 345.027,354.427 346.027,355.094 346.5,356.5C 344.973,356.573 343.973,355.906 343.5,354.5 Z"/></g>
<g><path style="opacity:0.484" fill="#ff9797" d="M 234.5,356.5 C 236.481,369.458 237.148,382.791 236.5,396.5C 235.816,383.265 235.15,369.932 234.5,356.5 Z"/></g>
<g><path style="opacity:0.484" fill="#ff9696" d="M 150.5,357.5 C 150.5,361.167 150.5,364.833 150.5,368.5C 159.833,368.5 169.167,368.5 178.5,368.5C 169.014,369.494 159.348,369.827 149.5,369.5C 149.183,365.298 149.517,361.298 150.5,357.5 Z"/></g>
<g><path style="opacity:0.486" fill="#ffabaa" d="M 178.5,379.5 C 169.167,379.5 159.833,379.5 150.5,379.5C 150.822,385.358 150.489,391.025 149.5,396.5C 149.5,390.5 149.5,384.5 149.5,378.5C 159.348,378.173 169.014,378.506 178.5,379.5 Z"/></g>
<g><path style="opacity:0.792" fill="#ff9e97" d="M 367.5,386.5 C 369.027,386.427 370.027,387.094 370.5,388.5C 368.973,388.573 367.973,387.906 367.5,386.5 Z"/></g>
<g><path style="opacity:0.481" fill="#ffa5a4" d="M 286.5,412.5 C 291.305,411.513 296.305,411.179 301.5,411.5C 301.784,413.415 301.451,415.081 300.5,416.5C 300.5,415.167 300.5,413.833 300.5,412.5C 295.833,412.5 291.167,412.5 286.5,412.5 Z"/></g>
<g><path style="opacity:0.999" fill="#ff4d45" d="M 155.5,412.5 C 156.833,412.5 158.167,412.5 159.5,412.5C 159.183,416.702 159.517,420.702 160.5,424.5C 161.837,425.315 162.837,426.482 163.5,428C 164.333,428.167 165.167,428.333 166,428.5C 168.029,427.45 169.863,426.116 171.5,424.5C 172.483,420.702 172.817,416.702 172.5,412.5C 173.5,412.5 174.5,412.5 175.5,412.5C 175.5,417.167 175.5,421.833 175.5,426.5C 172.996,433.079 168.33,435.246 161.5,433C 159.291,431.127 157.458,428.96 156,426.5C 155.501,421.845 155.334,417.179 155.5,412.5 Z"/></g>
<g><path style="opacity:0.24" fill="#ffc2c2" d="M 155.5,412.5 C 156.919,411.549 158.585,411.216 160.5,411.5C 160.5,415.833 160.5,420.167 160.5,424.5C 159.517,420.702 159.183,416.702 159.5,412.5C 158.167,412.5 156.833,412.5 155.5,412.5 Z"/></g>
<g><path style="opacity:0.48" fill="#ff9c9b" d="M 175.5,426.5 C 175.5,421.833 175.5,417.167 175.5,412.5C 174.5,412.5 173.5,412.5 172.5,412.5C 172.817,416.702 172.483,420.702 171.5,424.5C 171.5,420.167 171.5,415.833 171.5,411.5C 173.167,411.5 174.833,411.5 176.5,411.5C 176.821,416.695 176.487,421.695 175.5,426.5 Z"/></g>
<g><path style="opacity:0.997" fill="#ff554b" d="M 200.5,431.5 C 199.6,426.228 199.267,420.895 199.5,415.5C 200.29,414.206 201.29,413.039 202.5,412C 207.489,411.501 212.489,411.334 217.5,411.5C 217.5,413.167 217.5,414.833 217.5,416.5C 213.486,416.334 209.486,416.501 205.5,417C 204.833,417.667 204.167,418.333 203.5,419C 207.297,420.424 211.297,420.924 215.5,420.5C 215.5,422.167 215.5,423.833 215.5,425.5C 211.445,425.176 207.445,425.509 203.5,426.5C 203.667,426.833 203.833,427.167 204,427.5C 208.401,428.467 212.901,428.8 217.5,428.5C 217.5,430.167 217.5,431.833 217.5,433.5C 212.489,433.666 207.489,433.499 202.5,433C 201.584,432.722 200.918,432.222 200.5,431.5 Z"/></g>
<g><path style="opacity:0.473" fill="#ff9b9b" d="M 255.5,412.5 C 250.5,412.5 245.5,412.5 240.5,412.5C 240.5,419.5 240.5,426.5 240.5,433.5C 239.508,426.352 239.175,419.019 239.5,411.5C 245.026,411.179 250.36,411.512 255.5,412.5 Z"/></g>
<g><path style="opacity:0.996" fill="#ff4e45" d="M 255.5,412.5 C 261.736,417.233 262.069,422.4 256.5,428C 257.376,429.586 258.376,431.086 259.5,432.5C 256.464,434.042 254.131,433.375 252.5,430.5C 249.914,429.52 247.247,429.187 244.5,429.5C 244.5,430.833 244.5,432.167 244.5,433.5C 243.167,433.5 241.833,433.5 240.5,433.5C 240.5,426.5 240.5,419.5 240.5,412.5C 245.5,412.5 250.5,412.5 255.5,412.5 Z M 244.5,416.5 C 247.518,416.335 250.518,416.502 253.5,417C 256.172,419.679 255.838,422.012 252.5,424C 245.506,426.173 242.839,423.673 244.5,416.5 Z"/></g>
<g><path style="opacity:0.998" fill="#ff564b" d="M 286.5,412.5 C 291.167,412.5 295.833,412.5 300.5,412.5C 300.5,413.833 300.5,415.167 300.5,416.5C 296.486,416.334 292.486,416.501 288.5,417C 287.167,418 287.167,419 288.5,420C 292.167,420.333 295.833,420.667 299.5,421C 303.675,425.306 303.342,429.306 298.5,433C 293.177,433.499 287.844,433.666 282.5,433.5C 282.286,431.856 282.62,430.356 283.5,429C 288.348,428.941 293.015,428.274 297.5,427C 294.024,425.746 290.358,425.079 286.5,425C 282.708,422.947 281.542,419.781 283,415.5C 284.039,414.29 285.206,413.29 286.5,412.5 Z"/></g>
<g><path style="opacity:0.993" fill="#ff4f46" d="M 341.5,424.5 C 337.167,424.5 332.833,424.5 328.5,424.5C 328.263,425.791 328.596,426.791 329.5,427.5C 334.07,428.441 338.737,428.774 343.5,428.5C 343.5,430.167 343.5,431.833 343.5,433.5C 338.156,433.666 332.823,433.499 327.5,433C 324.959,430.251 323.959,426.918 324.5,423C 323.691,418.451 325.024,414.785 328.5,412C 333.489,411.501 338.489,411.334 343.5,411.5C 343.5,413.167 343.5,414.833 343.5,416.5C 339.486,416.334 335.486,416.501 331.5,417C 330.027,417.71 329.36,418.876 329.5,420.5C 333.5,420.5 337.5,420.5 341.5,420.5C 341.5,421.833 341.5,423.167 341.5,424.5 Z"/></g>
<g><path style="opacity:0.747" fill="#ff7c78" d="M 199.5,415.5 C 199.267,420.895 199.6,426.228 200.5,431.5C 199.883,431.389 199.383,431.056 199,430.5C 198.184,425.316 198.35,420.316 199.5,415.5 Z"/></g>
<g><path style="opacity:0.262" fill="#ffc2c1" d="M 341.5,424.5 C 337.232,424.869 333.232,425.869 329.5,427.5C 328.596,426.791 328.263,425.791 328.5,424.5C 332.833,424.5 337.167,424.5 341.5,424.5 Z"/></g>
</svg>
